<mxfile type="github" version="12.1.3" host="www.draw.io" modified="2019-10-18T09:12:03.063Z" agent="Mozilla/5.0 (Windows NT 10.0; Win64; x64) AppleWebKit/537.36 (KHTML, like Gecko) Chrome/64.0.3282.140 Safari/537.36 Edge/18.17763" etag="fl38Z6OHIIlQHR13Ir6N" pages="3">
  <diagram id="nMbEW4el2jbkitHSky47" name="FlightLog">
    <mxGraphModel grid="1" dx="721" dy="452" gridSize="10" guides="1" tooltips="1" connect="1" arrows="1" fold="1" page="1" pageScale="1" pageWidth="827" pageHeight="1169" math="0" shadow="0" background="none">
      <root>
        <mxCell id="0"/>
        <mxCell id="1" parent="0"/>
        <mxCell id="YJR4mvDb289GQr2k--yZ-1" value="" parent="1" vertex="1" style="group" connectable="0">
          <mxGeometry as="geometry" height="1040" width="680" y="52" x="60"/>
        </mxCell>
        <mxCell id="YJR4mvDb289GQr2k--yZ-2" value="" parent="YJR4mvDb289GQr2k--yZ-1" vertex="1" style="rounded=0;whiteSpace=wrap;html=1;fillColor=#000047;fontSize=12;">
          <mxGeometry as="geometry" height="1040" width="680"/>
        </mxCell>
        <mxCell id="YJR4mvDb289GQr2k--yZ-3" value="v" parent="YJR4mvDb289GQr2k--yZ-1" vertex="1" style="group;rotation=-1;" connectable="0">
          <mxGeometry as="geometry" height="90" width="133" y="881" x="61"/>
        </mxCell>
        <mxCell id="YJR4mvDb289GQr2k--yZ-4" value="" parent="YJR4mvDb289GQr2k--yZ-3" vertex="1" style="shape=manualInput;whiteSpace=wrap;html=1;labelBackgroundColor=#7EA6E0;fillColor=#00005C;fontSize=12;fontColor=#7EA6E0;strokeColor=none;size=17;rotation=-1;">
          <mxGeometry as="geometry" height="25.538461538461536" width="58.142076502732245" y="1" x="-1"/>
        </mxCell>
        <mxCell id="YJR4mvDb289GQr2k--yZ-5" value="" parent="YJR4mvDb289GQr2k--yZ-3" vertex="1" style="shape=manualInput;whiteSpace=wrap;html=1;labelBackgroundColor=#7EA6E0;fillColor=#00005C;fontSize=12;fontColor=#7EA6E0;resizeWidth=1;resizeHeight=1;flipH=1;strokeColor=none;size=17;rotation=-1;">
          <mxGeometry as="geometry" height="25.538461538461536" width="58.142076502732245" y="-1" x="74"/>
        </mxCell>
        <mxCell id="YJR4mvDb289GQr2k--yZ-6" value="" parent="YJR4mvDb289GQr2k--yZ-3" vertex="1" style="shape=manualInput;whiteSpace=wrap;html=1;labelBackgroundColor=#7EA6E0;fillColor=#00005C;fontSize=12;fontColor=#7EA6E0;rotation=-26;strokeColor=none;">
          <mxGeometry as="geometry" height="25.538461538461536" width="58.142076502732245" y="65" x="15"/>
        </mxCell>
        <mxCell id="YJR4mvDb289GQr2k--yZ-7" value="" parent="YJR4mvDb289GQr2k--yZ-3" vertex="1" style="shape=manualInput;whiteSpace=wrap;html=1;labelBackgroundColor=#7EA6E0;fillColor=#00005C;fontSize=12;fontColor=#7EA6E0;rotation=24;flipH=1;flipV=0;strokeColor=none;">
          <mxGeometry as="geometry" height="25.538461538461536" width="58.142076502732245" y="64" x="59"/>
        </mxCell>
        <mxCell id="YJR4mvDb289GQr2k--yZ-8" value="" parent="YJR4mvDb289GQr2k--yZ-3" vertex="1" style="shape=delay;whiteSpace=wrap;html=1;labelBackgroundColor=#7EA6E0;fillColor=#00005C;fontSize=12;fontColor=#7EA6E0;rotation=-90;strokeColor=none;">
          <mxGeometry as="geometry" height="22.346153846153843" width="116.28415300546449" y="12" x="7"/>
        </mxCell>
        <mxCell id="YJR4mvDb289GQr2k--yZ-9" value="" parent="YJR4mvDb289GQr2k--yZ-1" vertex="1" style="shape=manualInput;whiteSpace=wrap;html=1;labelBackgroundColor=#7EA6E0;fillColor=#00005C;fontSize=12;fontColor=#7EA6E0;strokeColor=none;size=17;rotation=-1;">
          <mxGeometry as="geometry" height="25.538461538461536" width="58.142076502732245" y="881.5" x="479.7586206896551"/>
        </mxCell>
        <mxCell id="YJR4mvDb289GQr2k--yZ-10" value="" parent="YJR4mvDb289GQr2k--yZ-1" vertex="1" style="shape=manualInput;whiteSpace=wrap;html=1;labelBackgroundColor=#7EA6E0;fillColor=#00005C;fontSize=12;fontColor=#7EA6E0;resizeWidth=1;resizeHeight=1;flipH=1;strokeColor=none;size=17;rotation=-1;">
          <mxGeometry as="geometry" height="25.538461538461536" width="58.142076502732245" y="879.5" x="554.7586206896551"/>
        </mxCell>
        <mxCell id="YJR4mvDb289GQr2k--yZ-11" value="" parent="YJR4mvDb289GQr2k--yZ-1" vertex="1" style="shape=manualInput;whiteSpace=wrap;html=1;labelBackgroundColor=#7EA6E0;fillColor=#00005C;fontSize=12;fontColor=#7EA6E0;rotation=-26;strokeColor=none;">
          <mxGeometry as="geometry" height="25.538461538461536" width="58.142076502732245" y="945.5" x="495.7586206896551"/>
        </mxCell>
        <mxCell id="YJR4mvDb289GQr2k--yZ-12" value="" parent="YJR4mvDb289GQr2k--yZ-1" vertex="1" style="shape=manualInput;whiteSpace=wrap;html=1;labelBackgroundColor=#7EA6E0;fillColor=#00005C;fontSize=12;fontColor=#7EA6E0;rotation=24;flipH=1;flipV=0;strokeColor=none;">
          <mxGeometry as="geometry" height="25.538461538461536" width="58.142076502732245" y="944.5" x="539.7586206896551"/>
        </mxCell>
        <mxCell id="YJR4mvDb289GQr2k--yZ-13" value="" parent="YJR4mvDb289GQr2k--yZ-1" vertex="1" style="shape=delay;whiteSpace=wrap;html=1;labelBackgroundColor=#7EA6E0;fillColor=#00005C;fontSize=12;fontColor=#7EA6E0;rotation=-90;strokeColor=none;">
          <mxGeometry as="geometry" height="22.346153846153843" width="116.28415300546449" y="892.5" x="487.7586206896551"/>
        </mxCell>
        <mxCell id="YJR4mvDb289GQr2k--yZ-14" value="" parent="YJR4mvDb289GQr2k--yZ-1" vertex="1" style="shape=manualInput;whiteSpace=wrap;html=1;labelBackgroundColor=#7EA6E0;fillColor=#00005C;fontSize=12;fontColor=#7EA6E0;strokeColor=none;size=17;rotation=-1;">
          <mxGeometry as="geometry" height="25.538461538461536" width="58.142076502732245" y="817.5" x="269.7586206896551"/>
        </mxCell>
        <mxCell id="YJR4mvDb289GQr2k--yZ-15" value="" parent="YJR4mvDb289GQr2k--yZ-1" vertex="1" style="shape=manualInput;whiteSpace=wrap;html=1;labelBackgroundColor=#7EA6E0;fillColor=#00005C;fontSize=12;fontColor=#7EA6E0;resizeWidth=1;resizeHeight=1;flipH=1;strokeColor=none;size=17;rotation=-1;">
          <mxGeometry as="geometry" height="25.538461538461536" width="58.142076502732245" y="815.5" x="344.7586206896551"/>
        </mxCell>
        <mxCell id="YJR4mvDb289GQr2k--yZ-16" value="" parent="YJR4mvDb289GQr2k--yZ-1" vertex="1" style="shape=manualInput;whiteSpace=wrap;html=1;labelBackgroundColor=#7EA6E0;fillColor=#00005C;fontSize=12;fontColor=#7EA6E0;rotation=-26;strokeColor=none;">
          <mxGeometry as="geometry" height="25.538461538461536" width="58.142076502732245" y="881.5" x="285.7586206896551"/>
        </mxCell>
        <mxCell id="YJR4mvDb289GQr2k--yZ-17" value="" parent="YJR4mvDb289GQr2k--yZ-1" vertex="1" style="shape=manualInput;whiteSpace=wrap;html=1;labelBackgroundColor=#7EA6E0;fillColor=#00005C;fontSize=12;fontColor=#7EA6E0;rotation=24;flipH=1;flipV=0;strokeColor=none;">
          <mxGeometry as="geometry" height="25.538461538461536" width="58.142076502732245" y="880.5" x="329.7586206896551"/>
        </mxCell>
        <mxCell id="YJR4mvDb289GQr2k--yZ-18" value="" parent="YJR4mvDb289GQr2k--yZ-1" vertex="1" style="shape=delay;whiteSpace=wrap;html=1;labelBackgroundColor=#7EA6E0;fillColor=#00005C;fontSize=12;fontColor=#7EA6E0;rotation=-90;strokeColor=none;">
          <mxGeometry as="geometry" height="22.346153846153843" width="116.28415300546449" y="828.5" x="277.7586206896551"/>
        </mxCell>
        <mxCell id="YJR4mvDb289GQr2k--yZ-19" value="v" parent="YJR4mvDb289GQr2k--yZ-1" vertex="1" style="group;rotation=-1;" connectable="0">
          <mxGeometry as="geometry" height="90" width="133" y="655.5" x="61"/>
        </mxCell>
        <mxCell id="YJR4mvDb289GQr2k--yZ-20" value="" parent="YJR4mvDb289GQr2k--yZ-19" vertex="1" style="shape=manualInput;whiteSpace=wrap;html=1;labelBackgroundColor=#7EA6E0;fillColor=#00005C;fontSize=12;fontColor=#7EA6E0;strokeColor=none;size=17;rotation=-1;">
          <mxGeometry as="geometry" height="25.538461538461536" width="58.142076502732245" y="1" x="-1"/>
        </mxCell>
        <mxCell id="YJR4mvDb289GQr2k--yZ-21" value="" parent="YJR4mvDb289GQr2k--yZ-19" vertex="1" style="shape=manualInput;whiteSpace=wrap;html=1;labelBackgroundColor=#7EA6E0;fillColor=#00005C;fontSize=12;fontColor=#7EA6E0;resizeWidth=1;resizeHeight=1;flipH=1;strokeColor=none;size=17;rotation=-1;">
          <mxGeometry as="geometry" height="25.538461538461536" width="58.142076502732245" y="-1" x="74"/>
        </mxCell>
        <mxCell id="YJR4mvDb289GQr2k--yZ-22" value="" parent="YJR4mvDb289GQr2k--yZ-19" vertex="1" style="shape=manualInput;whiteSpace=wrap;html=1;labelBackgroundColor=#7EA6E0;fillColor=#00005C;fontSize=12;fontColor=#7EA6E0;rotation=-26;strokeColor=none;">
          <mxGeometry as="geometry" height="25.538461538461536" width="58.142076502732245" y="65" x="15"/>
        </mxCell>
        <mxCell id="YJR4mvDb289GQr2k--yZ-23" value="" parent="YJR4mvDb289GQr2k--yZ-19" vertex="1" style="shape=manualInput;whiteSpace=wrap;html=1;labelBackgroundColor=#7EA6E0;fillColor=#00005C;fontSize=12;fontColor=#7EA6E0;rotation=24;flipH=1;flipV=0;strokeColor=none;">
          <mxGeometry as="geometry" height="25.538461538461536" width="58.142076502732245" y="64" x="59"/>
        </mxCell>
        <mxCell id="YJR4mvDb289GQr2k--yZ-24" value="" parent="YJR4mvDb289GQr2k--yZ-19" vertex="1" style="shape=delay;whiteSpace=wrap;html=1;labelBackgroundColor=#7EA6E0;fillColor=#00005C;fontSize=12;fontColor=#7EA6E0;rotation=-90;strokeColor=none;">
          <mxGeometry as="geometry" height="22.346153846153843" width="116.28415300546449" y="12" x="7"/>
        </mxCell>
        <mxCell id="YJR4mvDb289GQr2k--yZ-25" value="" parent="YJR4mvDb289GQr2k--yZ-1" vertex="1" style="shape=manualInput;whiteSpace=wrap;html=1;labelBackgroundColor=#7EA6E0;fillColor=#00005C;fontSize=12;fontColor=#7EA6E0;strokeColor=none;size=17;rotation=-1;">
          <mxGeometry as="geometry" height="25.538461538461536" width="58.142076502732245" y="656" x="479.7586206896551"/>
        </mxCell>
        <mxCell id="YJR4mvDb289GQr2k--yZ-26" value="" parent="YJR4mvDb289GQr2k--yZ-1" vertex="1" style="shape=manualInput;whiteSpace=wrap;html=1;labelBackgroundColor=#7EA6E0;fillColor=#00005C;fontSize=12;fontColor=#7EA6E0;resizeWidth=1;resizeHeight=1;flipH=1;strokeColor=none;size=17;rotation=-1;">
          <mxGeometry as="geometry" height="25.538461538461536" width="58.142076502732245" y="654" x="554.7586206896551"/>
        </mxCell>
        <mxCell id="YJR4mvDb289GQr2k--yZ-27" value="" parent="YJR4mvDb289GQr2k--yZ-1" vertex="1" style="shape=manualInput;whiteSpace=wrap;html=1;labelBackgroundColor=#7EA6E0;fillColor=#00005C;fontSize=12;fontColor=#7EA6E0;rotation=-26;strokeColor=none;">
          <mxGeometry as="geometry" height="25.538461538461536" width="58.142076502732245" y="720" x="495.7586206896551"/>
        </mxCell>
        <mxCell id="YJR4mvDb289GQr2k--yZ-28" value="" parent="YJR4mvDb289GQr2k--yZ-1" vertex="1" style="shape=manualInput;whiteSpace=wrap;html=1;labelBackgroundColor=#7EA6E0;fillColor=#00005C;fontSize=12;fontColor=#7EA6E0;rotation=24;flipH=1;flipV=0;strokeColor=none;">
          <mxGeometry as="geometry" height="25.538461538461536" width="58.142076502732245" y="719" x="539.7586206896551"/>
        </mxCell>
        <mxCell id="YJR4mvDb289GQr2k--yZ-29" value="" parent="YJR4mvDb289GQr2k--yZ-1" vertex="1" style="shape=delay;whiteSpace=wrap;html=1;labelBackgroundColor=#7EA6E0;fillColor=#00005C;fontSize=12;fontColor=#7EA6E0;rotation=-90;strokeColor=none;">
          <mxGeometry as="geometry" height="22.346153846153843" width="116.28415300546449" y="667" x="487.7586206896551"/>
        </mxCell>
        <mxCell id="YJR4mvDb289GQr2k--yZ-30" value="" parent="YJR4mvDb289GQr2k--yZ-1" vertex="1" style="shape=manualInput;whiteSpace=wrap;html=1;labelBackgroundColor=#7EA6E0;fillColor=#00005C;fontSize=12;fontColor=#7EA6E0;strokeColor=none;size=17;rotation=-1;">
          <mxGeometry as="geometry" height="25.538461538461536" width="58.142076502732245" y="592" x="269.7586206896551"/>
        </mxCell>
        <mxCell id="YJR4mvDb289GQr2k--yZ-31" value="" parent="YJR4mvDb289GQr2k--yZ-1" vertex="1" style="shape=manualInput;whiteSpace=wrap;html=1;labelBackgroundColor=#7EA6E0;fillColor=#00005C;fontSize=12;fontColor=#7EA6E0;resizeWidth=1;resizeHeight=1;flipH=1;strokeColor=none;size=17;rotation=-1;">
          <mxGeometry as="geometry" height="25.538461538461536" width="58.142076502732245" y="590" x="344.7586206896551"/>
        </mxCell>
        <mxCell id="YJR4mvDb289GQr2k--yZ-32" value="" parent="YJR4mvDb289GQr2k--yZ-1" vertex="1" style="shape=manualInput;whiteSpace=wrap;html=1;labelBackgroundColor=#7EA6E0;fillColor=#00005C;fontSize=12;fontColor=#7EA6E0;rotation=-26;strokeColor=none;">
          <mxGeometry as="geometry" height="25.538461538461536" width="58.142076502732245" y="656" x="285.7586206896551"/>
        </mxCell>
        <mxCell id="YJR4mvDb289GQr2k--yZ-33" value="" parent="YJR4mvDb289GQr2k--yZ-1" vertex="1" style="shape=manualInput;whiteSpace=wrap;html=1;labelBackgroundColor=#7EA6E0;fillColor=#00005C;fontSize=12;fontColor=#7EA6E0;rotation=24;flipH=1;flipV=0;strokeColor=none;">
          <mxGeometry as="geometry" height="25.538461538461536" width="58.142076502732245" y="655" x="329.7586206896551"/>
        </mxCell>
        <mxCell id="YJR4mvDb289GQr2k--yZ-34" value="" parent="YJR4mvDb289GQr2k--yZ-1" vertex="1" style="shape=delay;whiteSpace=wrap;html=1;labelBackgroundColor=#7EA6E0;fillColor=#00005C;fontSize=12;fontColor=#7EA6E0;rotation=-90;strokeColor=none;">
          <mxGeometry as="geometry" height="22.346153846153843" width="116.28415300546449" y="603" x="277.7586206896551"/>
        </mxCell>
        <mxCell id="YJR4mvDb289GQr2k--yZ-35" value="v" parent="YJR4mvDb289GQr2k--yZ-1" vertex="1" style="group;rotation=-1;" connectable="0">
          <mxGeometry as="geometry" height="90" width="133" y="415.5" x="64"/>
        </mxCell>
        <mxCell id="YJR4mvDb289GQr2k--yZ-36" value="" parent="YJR4mvDb289GQr2k--yZ-35" vertex="1" style="shape=manualInput;whiteSpace=wrap;html=1;labelBackgroundColor=#7EA6E0;fillColor=#00005C;fontSize=12;fontColor=#7EA6E0;strokeColor=none;size=17;rotation=-1;">
          <mxGeometry as="geometry" height="25.538461538461536" width="58.142076502732245" y="1" x="-1"/>
        </mxCell>
        <mxCell id="YJR4mvDb289GQr2k--yZ-37" value="" parent="YJR4mvDb289GQr2k--yZ-35" vertex="1" style="shape=manualInput;whiteSpace=wrap;html=1;labelBackgroundColor=#7EA6E0;fillColor=#00005C;fontSize=12;fontColor=#7EA6E0;resizeWidth=1;resizeHeight=1;flipH=1;strokeColor=none;size=17;rotation=-1;">
          <mxGeometry as="geometry" height="25.538461538461536" width="58.142076502732245" y="-1" x="74"/>
        </mxCell>
        <mxCell id="YJR4mvDb289GQr2k--yZ-38" value="" parent="YJR4mvDb289GQr2k--yZ-35" vertex="1" style="shape=manualInput;whiteSpace=wrap;html=1;labelBackgroundColor=#7EA6E0;fillColor=#00005C;fontSize=12;fontColor=#7EA6E0;rotation=-26;strokeColor=none;">
          <mxGeometry as="geometry" height="25.538461538461536" width="58.142076502732245" y="65" x="15"/>
        </mxCell>
        <mxCell id="YJR4mvDb289GQr2k--yZ-39" value="" parent="YJR4mvDb289GQr2k--yZ-35" vertex="1" style="shape=manualInput;whiteSpace=wrap;html=1;labelBackgroundColor=#7EA6E0;fillColor=#00005C;fontSize=12;fontColor=#7EA6E0;rotation=24;flipH=1;flipV=0;strokeColor=none;">
          <mxGeometry as="geometry" height="25.538461538461536" width="58.142076502732245" y="64" x="59"/>
        </mxCell>
        <mxCell id="YJR4mvDb289GQr2k--yZ-40" value="" parent="YJR4mvDb289GQr2k--yZ-35" vertex="1" style="shape=delay;whiteSpace=wrap;html=1;labelBackgroundColor=#7EA6E0;fillColor=#00005C;fontSize=12;fontColor=#7EA6E0;rotation=-90;strokeColor=none;">
          <mxGeometry as="geometry" height="22.346153846153843" width="116.28415300546449" y="12" x="7"/>
        </mxCell>
        <mxCell id="YJR4mvDb289GQr2k--yZ-41" value="" parent="YJR4mvDb289GQr2k--yZ-1" vertex="1" style="shape=manualInput;whiteSpace=wrap;html=1;labelBackgroundColor=#7EA6E0;fillColor=#00005C;fontSize=12;fontColor=#7EA6E0;strokeColor=none;size=17;rotation=-1;">
          <mxGeometry as="geometry" height="25.538461538461536" width="58.142076502732245" y="416" x="482.7586206896551"/>
        </mxCell>
        <mxCell id="YJR4mvDb289GQr2k--yZ-42" value="" parent="YJR4mvDb289GQr2k--yZ-1" vertex="1" style="shape=manualInput;whiteSpace=wrap;html=1;labelBackgroundColor=#7EA6E0;fillColor=#00005C;fontSize=12;fontColor=#7EA6E0;resizeWidth=1;resizeHeight=1;flipH=1;strokeColor=none;size=17;rotation=-1;">
          <mxGeometry as="geometry" height="25.538461538461536" width="58.142076502732245" y="414" x="557.7586206896551"/>
        </mxCell>
        <mxCell id="YJR4mvDb289GQr2k--yZ-43" value="" parent="YJR4mvDb289GQr2k--yZ-1" vertex="1" style="shape=manualInput;whiteSpace=wrap;html=1;labelBackgroundColor=#7EA6E0;fillColor=#00005C;fontSize=12;fontColor=#7EA6E0;rotation=-26;strokeColor=none;">
          <mxGeometry as="geometry" height="25.538461538461536" width="58.142076502732245" y="480" x="498.7586206896551"/>
        </mxCell>
        <mxCell id="YJR4mvDb289GQr2k--yZ-44" value="" parent="YJR4mvDb289GQr2k--yZ-1" vertex="1" style="shape=manualInput;whiteSpace=wrap;html=1;labelBackgroundColor=#7EA6E0;fillColor=#00005C;fontSize=12;fontColor=#7EA6E0;rotation=24;flipH=1;flipV=0;strokeColor=none;">
          <mxGeometry as="geometry" height="25.538461538461536" width="58.142076502732245" y="479" x="542.7586206896551"/>
        </mxCell>
        <mxCell id="YJR4mvDb289GQr2k--yZ-45" value="" parent="YJR4mvDb289GQr2k--yZ-1" vertex="1" style="shape=delay;whiteSpace=wrap;html=1;labelBackgroundColor=#7EA6E0;fillColor=#00005C;fontSize=12;fontColor=#7EA6E0;rotation=-90;strokeColor=none;">
          <mxGeometry as="geometry" height="22.346153846153843" width="116.28415300546449" y="427" x="490.7586206896551"/>
        </mxCell>
        <mxCell id="YJR4mvDb289GQr2k--yZ-46" value="" parent="YJR4mvDb289GQr2k--yZ-1" vertex="1" style="shape=manualInput;whiteSpace=wrap;html=1;labelBackgroundColor=#7EA6E0;fillColor=#00005C;fontSize=12;fontColor=#7EA6E0;strokeColor=none;size=17;rotation=-1;">
          <mxGeometry as="geometry" height="25.538461538461536" width="58.142076502732245" y="352" x="272.7586206896551"/>
        </mxCell>
        <mxCell id="YJR4mvDb289GQr2k--yZ-47" value="" parent="YJR4mvDb289GQr2k--yZ-1" vertex="1" style="shape=manualInput;whiteSpace=wrap;html=1;labelBackgroundColor=#7EA6E0;fillColor=#00005C;fontSize=12;fontColor=#7EA6E0;resizeWidth=1;resizeHeight=1;flipH=1;strokeColor=none;size=17;rotation=-1;">
          <mxGeometry as="geometry" height="25.538461538461536" width="58.142076502732245" y="350" x="347.7586206896551"/>
        </mxCell>
        <mxCell id="YJR4mvDb289GQr2k--yZ-48" value="" parent="YJR4mvDb289GQr2k--yZ-1" vertex="1" style="shape=manualInput;whiteSpace=wrap;html=1;labelBackgroundColor=#7EA6E0;fillColor=#00005C;fontSize=12;fontColor=#7EA6E0;rotation=-26;strokeColor=none;">
          <mxGeometry as="geometry" height="25.538461538461536" width="58.142076502732245" y="416" x="288.7586206896551"/>
        </mxCell>
        <mxCell id="YJR4mvDb289GQr2k--yZ-49" value="" parent="YJR4mvDb289GQr2k--yZ-1" vertex="1" style="shape=manualInput;whiteSpace=wrap;html=1;labelBackgroundColor=#7EA6E0;fillColor=#00005C;fontSize=12;fontColor=#7EA6E0;rotation=24;flipH=1;flipV=0;strokeColor=none;">
          <mxGeometry as="geometry" height="25.538461538461536" width="58.142076502732245" y="415" x="332.7586206896551"/>
        </mxCell>
        <mxCell id="YJR4mvDb289GQr2k--yZ-50" value="" parent="YJR4mvDb289GQr2k--yZ-1" vertex="1" style="shape=delay;whiteSpace=wrap;html=1;labelBackgroundColor=#7EA6E0;fillColor=#00005C;fontSize=12;fontColor=#7EA6E0;rotation=-90;strokeColor=none;">
          <mxGeometry as="geometry" height="22.346153846153843" width="116.28415300546449" y="363" x="280.7586206896551"/>
        </mxCell>
        <mxCell id="YJR4mvDb289GQr2k--yZ-51" value="v" parent="YJR4mvDb289GQr2k--yZ-1" vertex="1" style="group;rotation=-1;" connectable="0">
          <mxGeometry as="geometry" height="90" width="133" y="165.5" x="64"/>
        </mxCell>
        <mxCell id="YJR4mvDb289GQr2k--yZ-52" value="" parent="YJR4mvDb289GQr2k--yZ-51" vertex="1" style="shape=manualInput;whiteSpace=wrap;html=1;labelBackgroundColor=#7EA6E0;fillColor=#00005C;fontSize=12;fontColor=#7EA6E0;strokeColor=none;size=17;rotation=-1;">
          <mxGeometry as="geometry" height="25.538461538461536" width="58.142076502732245" y="1" x="-1"/>
        </mxCell>
        <mxCell id="YJR4mvDb289GQr2k--yZ-53" value="" parent="YJR4mvDb289GQr2k--yZ-51" vertex="1" style="shape=manualInput;whiteSpace=wrap;html=1;labelBackgroundColor=#7EA6E0;fillColor=#00005C;fontSize=12;fontColor=#7EA6E0;resizeWidth=1;resizeHeight=1;flipH=1;strokeColor=none;size=17;rotation=-1;">
          <mxGeometry as="geometry" height="25.538461538461536" width="58.142076502732245" y="-1" x="74"/>
        </mxCell>
        <mxCell id="YJR4mvDb289GQr2k--yZ-54" value="" parent="YJR4mvDb289GQr2k--yZ-51" vertex="1" style="shape=manualInput;whiteSpace=wrap;html=1;labelBackgroundColor=#7EA6E0;fillColor=#00005C;fontSize=12;fontColor=#7EA6E0;rotation=-26;strokeColor=none;">
          <mxGeometry as="geometry" height="25.538461538461536" width="58.142076502732245" y="65" x="15"/>
        </mxCell>
        <mxCell id="YJR4mvDb289GQr2k--yZ-55" value="" parent="YJR4mvDb289GQr2k--yZ-51" vertex="1" style="shape=manualInput;whiteSpace=wrap;html=1;labelBackgroundColor=#7EA6E0;fillColor=#00005C;fontSize=12;fontColor=#7EA6E0;rotation=24;flipH=1;flipV=0;strokeColor=none;">
          <mxGeometry as="geometry" height="25.538461538461536" width="58.142076502732245" y="64" x="59"/>
        </mxCell>
        <mxCell id="YJR4mvDb289GQr2k--yZ-56" value="" parent="YJR4mvDb289GQr2k--yZ-51" vertex="1" style="shape=delay;whiteSpace=wrap;html=1;labelBackgroundColor=#7EA6E0;fillColor=#00005C;fontSize=12;fontColor=#7EA6E0;rotation=-90;strokeColor=none;">
          <mxGeometry as="geometry" height="22.346153846153843" width="116.28415300546449" y="12" x="7"/>
        </mxCell>
        <mxCell id="YJR4mvDb289GQr2k--yZ-57" value="" parent="YJR4mvDb289GQr2k--yZ-1" vertex="1" style="shape=manualInput;whiteSpace=wrap;html=1;labelBackgroundColor=#7EA6E0;fillColor=#00005C;fontSize=12;fontColor=#7EA6E0;strokeColor=none;size=17;rotation=-1;">
          <mxGeometry as="geometry" height="25.538461538461536" width="58.142076502732245" y="166" x="482.7586206896551"/>
        </mxCell>
        <mxCell id="YJR4mvDb289GQr2k--yZ-58" value="" parent="YJR4mvDb289GQr2k--yZ-1" vertex="1" style="shape=manualInput;whiteSpace=wrap;html=1;labelBackgroundColor=#7EA6E0;fillColor=#00005C;fontSize=12;fontColor=#7EA6E0;resizeWidth=1;resizeHeight=1;flipH=1;strokeColor=none;size=17;rotation=-1;">
          <mxGeometry as="geometry" height="25.538461538461536" width="58.142076502732245" y="164" x="557.7586206896551"/>
        </mxCell>
        <mxCell id="YJR4mvDb289GQr2k--yZ-59" value="" parent="YJR4mvDb289GQr2k--yZ-1" vertex="1" style="shape=manualInput;whiteSpace=wrap;html=1;labelBackgroundColor=#7EA6E0;fillColor=#00005C;fontSize=12;fontColor=#7EA6E0;rotation=-26;strokeColor=none;">
          <mxGeometry as="geometry" height="25.538461538461536" width="58.142076502732245" y="230" x="498.7586206896551"/>
        </mxCell>
        <mxCell id="YJR4mvDb289GQr2k--yZ-60" value="" parent="YJR4mvDb289GQr2k--yZ-1" vertex="1" style="shape=manualInput;whiteSpace=wrap;html=1;labelBackgroundColor=#7EA6E0;fillColor=#00005C;fontSize=12;fontColor=#7EA6E0;rotation=24;flipH=1;flipV=0;strokeColor=none;">
          <mxGeometry as="geometry" height="25.538461538461536" width="58.142076502732245" y="229" x="542.7586206896551"/>
        </mxCell>
        <mxCell id="YJR4mvDb289GQr2k--yZ-61" value="" parent="YJR4mvDb289GQr2k--yZ-1" vertex="1" style="shape=delay;whiteSpace=wrap;html=1;labelBackgroundColor=#7EA6E0;fillColor=#00005C;fontSize=12;fontColor=#7EA6E0;rotation=-90;strokeColor=none;">
          <mxGeometry as="geometry" height="22.346153846153843" width="116.28415300546449" y="177" x="490.7586206896551"/>
        </mxCell>
        <mxCell id="YJR4mvDb289GQr2k--yZ-62" value="" parent="YJR4mvDb289GQr2k--yZ-1" vertex="1" style="shape=manualInput;whiteSpace=wrap;html=1;labelBackgroundColor=#7EA6E0;fillColor=#00005C;fontSize=12;fontColor=#7EA6E0;strokeColor=none;size=17;rotation=-1;">
          <mxGeometry as="geometry" height="25.538461538461536" width="58.142076502732245" y="102" x="272.7586206896551"/>
        </mxCell>
        <mxCell id="YJR4mvDb289GQr2k--yZ-63" value="" parent="YJR4mvDb289GQr2k--yZ-1" vertex="1" style="shape=manualInput;whiteSpace=wrap;html=1;labelBackgroundColor=#7EA6E0;fillColor=#00005C;fontSize=12;fontColor=#7EA6E0;resizeWidth=1;resizeHeight=1;flipH=1;strokeColor=none;size=17;rotation=-1;">
          <mxGeometry as="geometry" height="25.538461538461536" width="58.142076502732245" y="100" x="347.7586206896551"/>
        </mxCell>
        <mxCell id="YJR4mvDb289GQr2k--yZ-64" value="" parent="YJR4mvDb289GQr2k--yZ-1" vertex="1" style="shape=manualInput;whiteSpace=wrap;html=1;labelBackgroundColor=#7EA6E0;fillColor=#00005C;fontSize=12;fontColor=#7EA6E0;rotation=-26;strokeColor=none;">
          <mxGeometry as="geometry" height="25.538461538461536" width="58.142076502732245" y="166" x="288.7586206896551"/>
        </mxCell>
        <mxCell id="YJR4mvDb289GQr2k--yZ-65" value="" parent="YJR4mvDb289GQr2k--yZ-1" vertex="1" style="shape=manualInput;whiteSpace=wrap;html=1;labelBackgroundColor=#7EA6E0;fillColor=#00005C;fontSize=12;fontColor=#7EA6E0;rotation=24;flipH=1;flipV=0;strokeColor=none;">
          <mxGeometry as="geometry" height="25.538461538461536" width="58.142076502732245" y="165" x="332.7586206896551"/>
        </mxCell>
        <mxCell id="YJR4mvDb289GQr2k--yZ-66" value="" parent="YJR4mvDb289GQr2k--yZ-1" vertex="1" style="shape=delay;whiteSpace=wrap;html=1;labelBackgroundColor=#7EA6E0;fillColor=#00005C;fontSize=12;fontColor=#7EA6E0;rotation=-90;strokeColor=none;">
          <mxGeometry as="geometry" height="22.346153846153843" width="116.28415300546449" y="113" x="280.7586206896551"/>
        </mxCell>
        <mxCell id="YJR4mvDb289GQr2k--yZ-67" value="Flight Time: &amp;nbsp; &amp;nbsp; &amp;nbsp;&amp;nbsp; mins" parent="YJR4mvDb289GQr2k--yZ-1" vertex="1" style="rounded=0;whiteSpace=wrap;html=1;labelBackgroundColor=none;fontFamily=Courier New;fontSize=12;fontColor=#FFFFFF;opacity=30;align=left;">
          <mxGeometry as="geometry" height="30" width="185" y="574.5" x="421.5"/>
        </mxCell>
        <mxCell id="YJR4mvDb289GQr2k--yZ-68" value="Description" parent="YJR4mvDb289GQr2k--yZ-1" vertex="1" style="rounded=0;whiteSpace=wrap;html=1;labelBackgroundColor=none;fontFamily=Courier New;fontSize=21;fontColor=#FFFFFF;opacity=30;">
          <mxGeometry as="geometry" height="145" width="186" y="574.5" x="226"/>
        </mxCell>
        <mxCell id="YJR4mvDb289GQr2k--yZ-69" value="Edit" parent="YJR4mvDb289GQr2k--yZ-1" vertex="1" style="rounded=0;whiteSpace=wrap;html=1;labelBackgroundColor=none;fontFamily=Courier New;fontSize=12;fontColor=#FFFFFF;opacity=30;">
          <mxGeometry as="geometry" height="16" width="268" y="728.5" x="73.5"/>
        </mxCell>
        <mxCell id="YJR4mvDb289GQr2k--yZ-70" value="Airfield(s):" parent="YJR4mvDb289GQr2k--yZ-1" vertex="1" style="rounded=0;whiteSpace=wrap;html=1;labelBackgroundColor=none;fontFamily=Courier New;fontSize=12;fontColor=#FFFFFF;opacity=30;align=left;">
          <mxGeometry as="geometry" height="30" width="185" y="689.5" x="421.5"/>
        </mxCell>
        <mxCell id="YJR4mvDb289GQr2k--yZ-71" value="Passengers:" parent="YJR4mvDb289GQr2k--yZ-1" vertex="1" style="rounded=0;whiteSpace=wrap;html=1;labelBackgroundColor=none;fontFamily=Courier New;fontSize=12;fontColor=#FFFFFF;opacity=30;align=left;">
          <mxGeometry as="geometry" height="30" width="185" y="650" x="421.5"/>
        </mxCell>
        <mxCell id="YJR4mvDb289GQr2k--yZ-72" value="Delete" parent="YJR4mvDb289GQr2k--yZ-1" vertex="1" style="rounded=0;whiteSpace=wrap;html=1;labelBackgroundColor=none;fontFamily=Courier New;fontSize=12;fontColor=#FFFFFF;opacity=30;">
          <mxGeometry as="geometry" height="16" width="260" y="728.5" x="346.5"/>
        </mxCell>
        <mxCell id="YJR4mvDb289GQr2k--yZ-73" value="Flight Date:&amp;nbsp;" parent="YJR4mvDb289GQr2k--yZ-1" vertex="1" style="rounded=0;whiteSpace=wrap;html=1;labelBackgroundColor=none;fontFamily=Courier New;fontSize=12;fontColor=#FFFFFF;opacity=30;align=left;">
          <mxGeometry as="geometry" height="30" width="185" y="612.5" x="421.5"/>
        </mxCell>
        <mxCell id="YJR4mvDb289GQr2k--yZ-74" value="Picture" parent="YJR4mvDb289GQr2k--yZ-1" vertex="1" style="rounded=0;whiteSpace=wrap;html=1;labelBackgroundColor=none;fontFamily=Courier New;fontSize=21;fontColor=#FFFFFF;opacity=30;">
          <mxGeometry as="geometry" height="145" width="143" y="574.5" x="73.5"/>
        </mxCell>
        <mxCell id="YJR4mvDb289GQr2k--yZ-75" value="Flight Time: &amp;nbsp; &amp;nbsp; &amp;nbsp;&amp;nbsp; mins" parent="YJR4mvDb289GQr2k--yZ-1" vertex="1" style="rounded=0;whiteSpace=wrap;html=1;labelBackgroundColor=none;fontFamily=Courier New;fontSize=12;fontColor=#FFFFFF;opacity=30;align=left;">
          <mxGeometry as="geometry" height="30" width="185" y="781.5" x="421.5"/>
        </mxCell>
        <mxCell id="YJR4mvDb289GQr2k--yZ-76" value="Description" parent="YJR4mvDb289GQr2k--yZ-1" vertex="1" style="rounded=0;whiteSpace=wrap;html=1;labelBackgroundColor=none;fontFamily=Courier New;fontSize=21;fontColor=#FFFFFF;opacity=30;">
          <mxGeometry as="geometry" height="145" width="186" y="781.5" x="226"/>
        </mxCell>
        <mxCell id="YJR4mvDb289GQr2k--yZ-77" value="Edit" parent="YJR4mvDb289GQr2k--yZ-1" vertex="1" style="rounded=0;whiteSpace=wrap;html=1;labelBackgroundColor=none;fontFamily=Courier New;fontSize=12;fontColor=#FFFFFF;opacity=30;">
          <mxGeometry as="geometry" height="16" width="268" y="935.5" x="73.5"/>
        </mxCell>
        <mxCell id="YJR4mvDb289GQr2k--yZ-78" value="Airfield(s):" parent="YJR4mvDb289GQr2k--yZ-1" vertex="1" style="rounded=0;whiteSpace=wrap;html=1;labelBackgroundColor=none;fontFamily=Courier New;fontSize=12;fontColor=#FFFFFF;opacity=30;align=left;">
          <mxGeometry as="geometry" height="30" width="185" y="896.5" x="421.5"/>
        </mxCell>
        <mxCell id="YJR4mvDb289GQr2k--yZ-79" value="Passengers:" parent="YJR4mvDb289GQr2k--yZ-1" vertex="1" style="rounded=0;whiteSpace=wrap;html=1;labelBackgroundColor=none;fontFamily=Courier New;fontSize=12;fontColor=#FFFFFF;opacity=30;align=left;">
          <mxGeometry as="geometry" height="30" width="185" y="857" x="421.5"/>
        </mxCell>
        <mxCell id="YJR4mvDb289GQr2k--yZ-80" value="Delete" parent="YJR4mvDb289GQr2k--yZ-1" vertex="1" style="rounded=0;whiteSpace=wrap;html=1;labelBackgroundColor=none;fontFamily=Courier New;fontSize=12;fontColor=#FFFFFF;opacity=30;">
          <mxGeometry as="geometry" height="16" width="260" y="935.5" x="346.5"/>
        </mxCell>
        <mxCell id="YJR4mvDb289GQr2k--yZ-81" value="Flight Date:&amp;nbsp;" parent="YJR4mvDb289GQr2k--yZ-1" vertex="1" style="rounded=0;whiteSpace=wrap;html=1;labelBackgroundColor=none;fontFamily=Courier New;fontSize=12;fontColor=#FFFFFF;opacity=30;align=left;">
          <mxGeometry as="geometry" height="30" width="185" y="819.5" x="421.5"/>
        </mxCell>
        <mxCell id="YJR4mvDb289GQr2k--yZ-82" value="Picture" parent="YJR4mvDb289GQr2k--yZ-1" vertex="1" style="rounded=0;whiteSpace=wrap;html=1;labelBackgroundColor=none;fontFamily=Courier New;fontSize=21;fontColor=#FFFFFF;opacity=30;">
          <mxGeometry as="geometry" height="145" width="143" y="781.5" x="73.5"/>
        </mxCell>
        <mxCell id="YY9EZxj1DfYb8qE-qnu3-2" value="&lt;font&gt;Flight Log&lt;/font&gt;" parent="1" vertex="1" style="shape=step;perimeter=stepPerimeter;whiteSpace=wrap;html=1;fixedSize=1;opacity=30;fontSize=40;fontFamily=Courier New;labelBorderColor=none;labelBackgroundColor=none;fontColor=#FFFFFF;fontStyle=0">
          <mxGeometry as="geometry" height="130" width="467" y="181" x="132"/>
        </mxCell>
        <mxCell id="YY9EZxj1DfYb8qE-qnu3-3" value="Airfields" parent="1" vertex="1" style="shape=step;perimeter=stepPerimeter;whiteSpace=wrap;html=1;fixedSize=1;opacity=30;fontSize=15;fontFamily=Courier New;labelBorderColor=none;labelBackgroundColor=none;fontColor=#FFFFFF;">
          <mxGeometry as="geometry" height="40" width="160" y="120" x="467"/>
        </mxCell>
        <mxCell id="YY9EZxj1DfYb8qE-qnu3-4" value="Flight Log" parent="1" vertex="1" style="shape=step;perimeter=stepPerimeter;whiteSpace=wrap;html=1;fixedSize=1;opacity=30;fontSize=15;fontFamily=Courier New;labelBorderColor=none;labelBackgroundColor=none;fontColor=#FFFFFF;">
          <mxGeometry as="geometry" height="40" width="160" y="120" x="323"/>
        </mxCell>
        <mxCell id="YY9EZxj1DfYb8qE-qnu3-5" value="Navigate To" parent="1" vertex="1" style="shape=step;perimeter=stepPerimeter;whiteSpace=wrap;html=1;fixedSize=1;opacity=30;fontSize=15;fontFamily=Courier New;labelBorderColor=none;labelBackgroundColor=none;fontColor=#FFFFFF;">
          <mxGeometry as="geometry" height="40" width="160" y="120" x="180"/>
        </mxCell>
        <mxCell id="YY9EZxj1DfYb8qE-qnu3-7" value="Create&lt;br&gt;New&lt;br&gt;Log" parent="1" vertex="1" style="shape=step;perimeter=stepPerimeter;whiteSpace=wrap;html=1;fixedSize=1;opacity=30;fontSize=14;fontFamily=Courier New;labelBorderColor=none;labelBackgroundColor=none;fontColor=#FFFFFF;fontStyle=0">
          <mxGeometry as="geometry" height="130" width="87" y="181" x="583"/>
        </mxCell>
        <mxCell id="YY9EZxj1DfYb8qE-qnu3-8" value="Flight Time: &amp;nbsp; &amp;nbsp; &amp;nbsp;&amp;nbsp; mins" parent="1" vertex="1" style="rounded=0;whiteSpace=wrap;html=1;labelBackgroundColor=none;fontFamily=Courier New;fontSize=12;fontColor=#FFFFFF;opacity=30;align=left;">
          <mxGeometry as="geometry" height="30" width="185" y="420" x="480"/>
        </mxCell>
        <mxCell id="YY9EZxj1DfYb8qE-qnu3-9" value="Description" parent="1" vertex="1" style="rounded=0;whiteSpace=wrap;html=1;labelBackgroundColor=none;fontFamily=Courier New;fontSize=21;fontColor=#FFFFFF;opacity=30;">
          <mxGeometry as="geometry" height="145" width="186" y="420" x="284.5"/>
        </mxCell>
        <mxCell id="YY9EZxj1DfYb8qE-qnu3-10" value="Edit" parent="1" vertex="1" style="rounded=0;whiteSpace=wrap;html=1;labelBackgroundColor=none;fontFamily=Courier New;fontSize=12;fontColor=#FFFFFF;opacity=30;">
          <mxGeometry as="geometry" height="16" width="268" y="574" x="132"/>
        </mxCell>
        <mxCell id="YY9EZxj1DfYb8qE-qnu3-11" value="Airfield(s):" parent="1" vertex="1" style="rounded=0;whiteSpace=wrap;html=1;labelBackgroundColor=none;fontFamily=Courier New;fontSize=12;fontColor=#FFFFFF;opacity=30;align=left;">
          <mxGeometry as="geometry" height="30" width="185" y="535" x="480"/>
        </mxCell>
        <mxCell id="YY9EZxj1DfYb8qE-qnu3-12" value="Passengers:" parent="1" vertex="1" style="rounded=0;whiteSpace=wrap;html=1;labelBackgroundColor=none;fontFamily=Courier New;fontSize=12;fontColor=#FFFFFF;opacity=30;align=left;">
          <mxGeometry as="geometry" height="30" width="185" y="495.5" x="480"/>
        </mxCell>
        <mxCell id="YY9EZxj1DfYb8qE-qnu3-13" value="Delete" parent="1" vertex="1" style="rounded=0;whiteSpace=wrap;html=1;labelBackgroundColor=none;fontFamily=Courier New;fontSize=12;fontColor=#FFFFFF;opacity=30;">
          <mxGeometry as="geometry" height="16" width="260" y="574" x="405"/>
        </mxCell>
        <mxCell id="YY9EZxj1DfYb8qE-qnu3-28" value="&lt;p style=&quot;line-height: 140%&quot;&gt;&lt;br&gt;&lt;/p&gt;" parent="1" vertex="1" style="rounded=0;whiteSpace=wrap;html=1;labelBackgroundColor=none;fontFamily=Courier New;fontSize=18;fontColor=#000000;align=left;verticalAlign=top;">
          <mxGeometry as="geometry" height="390" width="470" y="1040" x="141"/>
        </mxCell>
        <mxCell id="YY9EZxj1DfYb8qE-qnu3-30" value="Browse Computer..." parent="1" vertex="1" style="rounded=0;whiteSpace=wrap;html=1;labelBackgroundColor=none;fontFamily=Courier New;fontSize=18;fontColor=#000000;opacity=50;fillColor=#999999;">
          <mxGeometry as="geometry" height="20" width="264" y="1064" x="316"/>
        </mxCell>
        <mxCell id="YY9EZxj1DfYb8qE-qnu3-31" value="" parent="1" vertex="1" style="rounded=0;whiteSpace=wrap;html=1;labelBackgroundColor=none;fillColor=none;fontFamily=Courier New;fontSize=18;fontColor=#000000;opacity=50;">
          <mxGeometry as="geometry" height="95" width="264" y="1115" x="316"/>
        </mxCell>
        <mxCell id="YY9EZxj1DfYb8qE-qnu3-32" value="" parent="1" vertex="1" style="rounded=0;whiteSpace=wrap;html=1;labelBackgroundColor=none;fillColor=none;fontFamily=Courier New;fontSize=18;fontColor=#000000;opacity=50;">
          <mxGeometry as="geometry" height="25" width="134" y="1225.5" x="316"/>
        </mxCell>
        <mxCell id="YY9EZxj1DfYb8qE-qnu3-33" value="mins" parent="1" vertex="1" style="rounded=0;whiteSpace=wrap;html=1;labelBackgroundColor=none;fillColor=none;fontFamily=Courier New;fontSize=18;fontColor=#000000;opacity=50;">
          <mxGeometry as="geometry" height="25" width="130" y="1225.5" x="450"/>
        </mxCell>
        <mxCell id="YY9EZxj1DfYb8qE-qnu3-34" value="" parent="1" vertex="1" style="rounded=0;whiteSpace=wrap;html=1;labelBackgroundColor=none;fillColor=none;fontFamily=Courier New;fontSize=18;fontColor=#000000;opacity=50;">
          <mxGeometry as="geometry" height="25" width="264" y="1305" x="316"/>
        </mxCell>
        <mxCell id="YY9EZxj1DfYb8qE-qnu3-35" value="" parent="1" vertex="1" style="rounded=0;whiteSpace=wrap;html=1;labelBackgroundColor=none;fillColor=none;fontFamily=Courier New;fontSize=18;fontColor=#000000;opacity=50;">
          <mxGeometry as="geometry" height="25" width="264" y="1343" x="316"/>
        </mxCell>
        <mxCell id="YY9EZxj1DfYb8qE-qnu3-36" value="Add Image" parent="1" vertex="1" style="rounded=0;whiteSpace=wrap;html=1;labelBackgroundColor=none;fillColor=none;fontFamily=Courier New;fontSize=18;fontColor=#000000;opacity=50;strokeColor=none;">
          <mxGeometry as="geometry" height="35" width="120" y="1056.5" x="149"/>
        </mxCell>
        <mxCell id="YY9EZxj1DfYb8qE-qnu3-37" value="Description" parent="1" vertex="1" style="rounded=0;whiteSpace=wrap;html=1;labelBackgroundColor=none;fillColor=none;fontFamily=Courier New;fontSize=18;fontColor=#000000;opacity=50;strokeColor=none;">
          <mxGeometry as="geometry" height="35" width="120" y="1107" x="156"/>
        </mxCell>
        <mxCell id="YY9EZxj1DfYb8qE-qnu3-38" value="Flight Time" parent="1" vertex="1" style="rounded=0;whiteSpace=wrap;html=1;labelBackgroundColor=none;fillColor=none;fontFamily=Courier New;fontSize=18;fontColor=#000000;opacity=50;strokeColor=none;">
          <mxGeometry as="geometry" height="35" width="133" y="1220.5" x="151"/>
        </mxCell>
        <mxCell id="YY9EZxj1DfYb8qE-qnu3-39" value="Passenger(s)" parent="1" vertex="1" style="rounded=0;whiteSpace=wrap;html=1;labelBackgroundColor=none;fillColor=none;fontFamily=Courier New;fontSize=18;fontColor=#000000;opacity=50;strokeColor=none;">
          <mxGeometry as="geometry" height="35" width="133" y="1300" x="156"/>
        </mxCell>
        <mxCell id="YY9EZxj1DfYb8qE-qnu3-40" value="Airfield(s)" parent="1" vertex="1" style="rounded=0;whiteSpace=wrap;html=1;labelBackgroundColor=none;fillColor=none;fontFamily=Courier New;fontSize=18;fontColor=#000000;opacity=50;strokeColor=none;">
          <mxGeometry as="geometry" height="35" width="133" y="1338" x="156"/>
        </mxCell>
        <mxCell id="2VcNcAjpWqnttjoj4OWY-1" value="Flight Date:&amp;nbsp;" parent="1" vertex="1" style="rounded=0;whiteSpace=wrap;html=1;labelBackgroundColor=none;fontFamily=Courier New;fontSize=12;fontColor=#FFFFFF;opacity=30;align=left;">
          <mxGeometry as="geometry" height="30" width="185" y="458" x="480"/>
        </mxCell>
        <mxCell id="2VcNcAjpWqnttjoj4OWY-2" value="DD/MM/YYYY" parent="1" vertex="1" style="rounded=0;whiteSpace=wrap;html=1;labelBackgroundColor=none;fillColor=none;fontFamily=Courier New;fontSize=18;fontColor=#000000;opacity=50;">
          <mxGeometry as="geometry" height="25" width="264" y="1266" x="316"/>
        </mxCell>
        <mxCell id="2VcNcAjpWqnttjoj4OWY-3" value="Flight Date" parent="1" vertex="1" style="rounded=0;whiteSpace=wrap;html=1;labelBackgroundColor=none;fillColor=none;fontFamily=Courier New;fontSize=18;fontColor=#000000;opacity=50;strokeColor=none;">
          <mxGeometry as="geometry" height="35" width="133" y="1261" x="151"/>
        </mxCell>
        <mxCell id="2VcNcAjpWqnttjoj4OWY-4" value="Picture" parent="1" vertex="1" style="rounded=0;whiteSpace=wrap;html=1;labelBackgroundColor=none;fontFamily=Courier New;fontSize=21;fontColor=#FFFFFF;opacity=30;">
          <mxGeometry as="geometry" height="145" width="143" y="420" x="132"/>
        </mxCell>
        <mxCell id="WyWSjid5mBtgm29taI9y-2" value="&lt;div align=&quot;center&quot;&gt;From Flight Date&amp;nbsp;&lt;/div&gt;" parent="1" vertex="1" style="rounded=0;whiteSpace=wrap;html=1;labelBackgroundColor=none;fontFamily=Courier New;fontSize=12;fontColor=#FFFFFF;opacity=30;align=center;strokeColor=#FFFFFF;">
          <mxGeometry as="geometry" height="30" width="186" y="330" x="284"/>
        </mxCell>
        <mxCell id="WyWSjid5mBtgm29taI9y-4" value="" parent="1" vertex="1" style="triangle;whiteSpace=wrap;html=1;rotation=90;fillColor=#FFFFFF;strokeColor=none;fontColor=#333333;">
          <mxGeometry as="geometry" height="20" width="11" y="335" x="442"/>
        </mxCell>
        <mxCell id="WyWSjid5mBtgm29taI9y-5" value="Filter By:" parent="1" vertex="1" style="rounded=0;whiteSpace=wrap;html=1;labelBackgroundColor=none;fontFamily=Courier New;fontSize=12;fontColor=#FFFFFF;opacity=30;align=left;">
          <mxGeometry as="geometry" height="30" width="143" y="330" x="132"/>
        </mxCell>
        <mxCell id="WyWSjid5mBtgm29taI9y-6" value="&lt;div align=&quot;left&quot;&gt;Total Flight Time:&lt;br&gt;&lt;/div&gt;" parent="1" vertex="1" style="rounded=0;whiteSpace=wrap;html=1;labelBackgroundColor=none;fontFamily=Courier New;fontSize=12;fontColor=#FFFFFF;opacity=30;align=left;">
          <mxGeometry as="geometry" height="30" width="143" y="366" x="132"/>
        </mxCell>
        <mxCell id="WyWSjid5mBtgm29taI9y-7" value="&amp;nbsp; &amp;nbsp;&amp;nbsp; hrs &amp;nbsp;&amp;nbsp; mins" parent="1" vertex="1" style="rounded=0;whiteSpace=wrap;html=1;labelBackgroundColor=none;fontFamily=Courier New;fontSize=12;fontColor=#FFFFFF;opacity=30;align=center;strokeColor=#FFFFFF;">
          <mxGeometry as="geometry" height="30" width="186" y="366" x="284"/>
        </mxCell>
        <mxCell id="WyWSjid5mBtgm29taI9y-9" value="&lt;div align=&quot;center&quot;&gt;To Flight Date&amp;nbsp;&lt;/div&gt;" parent="1" vertex="1" style="rounded=0;whiteSpace=wrap;html=1;labelBackgroundColor=none;fontFamily=Courier New;fontSize=12;fontColor=#FFFFFF;opacity=30;align=center;">
          <mxGeometry as="geometry" height="30" width="185" y="330" x="480"/>
        </mxCell>
        <mxCell id="WyWSjid5mBtgm29taI9y-10" value="" parent="1" vertex="1" style="triangle;whiteSpace=wrap;html=1;rotation=90;fillColor=#FFFFFF;strokeColor=none;fontColor=#333333;">
          <mxGeometry as="geometry" height="20" width="11" y="335" x="640"/>
        </mxCell>
        <mxCell id="jV3nydySxq1J7BeqT6tq-1" value="Save" parent="1" vertex="1" style="rounded=0;whiteSpace=wrap;html=1;labelBackgroundColor=none;fontFamily=Courier New;fontSize=18;fontColor=#000000;opacity=50;fillColor=#999999;">
          <mxGeometry as="geometry" height="26" width="264" y="1384" x="317"/>
        </mxCell>
        <mxCell id="YJR4mvDb289GQr2k--yZ-83" value="" parent="1" style="endArrow=classic;html=1;fontSize=12;fontColor=#FFFFFF;exitX=0.5;exitY=1;exitDx=0;exitDy=0;entryX=0.343;entryY=0.001;entryDx=0;entryDy=0;entryPerimeter=0;strokeColor=#FFFFFF;jumpSize=6;" edge="1" target="YY9EZxj1DfYb8qE-qnu3-28" source="YJR4mvDb289GQr2k--yZ-77">
          <mxGeometry as="geometry" height="50" width="50" relative="1">
            <mxPoint as="sourcePoint" y="1500" x="60"/>
            <mxPoint as="targetPoint" y="1450" x="110"/>
          </mxGeometry>
        </mxCell>
      </root>
    </mxGraphModel>
  </diagram>
  <diagram id="RslvPlnNN0yhhFI4d93l" name="Airfields">
    <mxGraphModel grid="1" dx="721" dy="452" gridSize="10" guides="1" tooltips="1" connect="1" arrows="1" fold="1" page="1" pageScale="1" pageWidth="827" pageHeight="1169" math="0" shadow="0">
      <root>
        <mxCell id="L4bOj4LlUDrryAcFYIaK-0"/>
        <mxCell id="L4bOj4LlUDrryAcFYIaK-1" parent="L4bOj4LlUDrryAcFYIaK-0"/>
        <mxCell id="L4bOj4LlUDrryAcFYIaK-2" value="" parent="L4bOj4LlUDrryAcFYIaK-1" vertex="1" style="shape=image;verticalLabelPosition=bottom;labelBackgroundColor=#ffffff;verticalAlign=top;aspect=fixed;imageAspect=0;image=data:image/jpeg,/9j/4AAQSkZJRgABAQEASABIAAD/2wBDAAYEBQYFBAYGBQYHBwYIChAKCgkJChQODwwQFxQYGBcUFhYaHSUfGhsjHBYWICwgIyYnKSopGR8tMC0oMCUoKSj/2wBDAQcHBwoIChMKChMoGhYaKCgoKCgoKCgoKCgoKCgoKCgoKCgoKCgoKCgoKCgoKCgoKCgoKCgoKCgoKCgoKCgoKCj/wgARCAFiAOwDASIAAhEBAxEB/8QAGwAAAgMBAQEAAAAAAAAAAAAAAgMAAQQFBgf/xAAYAQEBAQEBAAAAAAAAAAAAAAAAAQIDBP/aAAwDAQACEAMQAAAB4Eu/V5Kl2Dd2VChUKAwoDCgMKAwoDCgNHQNHQNHAIUBhVUu5LV3CS7Ku4SXYMKAwoDCgMKAwqKooDCgEOgYUAo4lS7WoVwNlCoVg2UBhWBGWLjLFU2Co4zNNAKqm2iqdFRHRExtUq2nKi3HGeaTMxa7ly3qszMfSqjbhF6YYy2UYq3VWOtVGaOFE2cFC+6zVqBJa6lfec4cSjVtqbKbE2NpZEg2WRHKqmWIveC470psVIixwpiMvPVjwVBN6blzW90ZC6BS8++q9eUXYkvJ0dQpedN2yXiM7aZeZpaNZUdLl2ZHWnWCAdFY268yZgcNyuFVMJB89vblKNbMjV3OVqzuOY3NCyyi0Kz7zpyhVhWu7KA4i6ZVLptCqZLFU0RdHVjH5X89v0qdnWluQpd45LhSOuyvOz1JHli9HlOU3WZlHoVLzcveCuGfYx2c8XVrKRaKKFo2KptWG/czl1xO1SVK9hC07LhZWlX3hTZ1G8Ujtp5pRrBNVFNginiIF42IFw2Jpo2LFlDGCMr4iQ8FkXcMGzdKgtbZrGW2RkvVFz2+4RH0qA0gZh0BZnDQuxQsGxVHVmcgK5K6KWyq5SujlsocsKzlo7ZLTLbKBuYuaa+eEjxHhtT6Qz5L6q5+ikvRmpBwWKFo2YTq94IhKUiE5SKizSMTlIxZNE0Wym5HlT3HC+U8Lc9r43d3I8h6P6H6w8t1taMbyrelFAwLFCYWZbhb5wpctlRywsxy6jG1YzzfjrPpvjvAL1N+Se8rwfpPqPosa856pXmrPlvpPB/QbffZ3I4dVqYtFrYuwFmFmYhPWLKXLC53mbPX8HxOLc9v53lzrhiCopyLzfddL5jWL9my/JWXX0Ty3ErWdnuvnPqM69nj6nY8/ZN2GaIWFkGqTLYlrPlPNfTWbnzLre7uPPed+iBL8YL3HF7cuHPQrrgl7DsZ182H6l8z1D9D6n1vHp4Dr+prG+d0RHGrXAiBAIIgEADWQ85bxoLPcaCzlLoLOUt/J/rOPpnw3osHp9Z7R5i4dtIquNV5Yuqs9DxSA4EjDVrANYLsYCw1M5ZS3jVeUpdV5il0lnKXRaDh5JKVxoKV9psdFWraXUMEBDEF0wFgjAUvUatQWZC55duXQvnlL0S5xS9EucWb0T5hS9MuZcdMuZa9Ocy46c5kOlXOo6Ic8a3hhFNq8gamteYLNI5h1M15r6Y03nuXTeZsOLPa6CzSNV5Ll13kka7xw2THDZWSjZWOGms1VoHPVjwUNOFNWItN7w603K603DrRavvPcPtENERF0XmuNNIg6kwbKAOgGmUukZSxporpFkqbjYuQ2Lg2KuGxdqy1WHa7DtchkXBkVQ2KobFVTaXQ2l0jKXVDBlhWFh2EDgWHa5KyLgyLsZQQZFwOLgyggcCg6GBUMsKhokkskkWSSCuQkkJJCVISSFSQu5CSQlSEqQqSEqRP/xAApEAACAQQBAwQCAwEBAAAAAAAAEQECAwQSBRATIAYUITAiQBUjUEFw/9oACAEBAAEFAv8AyJCEIQjUikQhCEai+pCNTUik1gQhC6yKTU1F4SLojU1NTURFIhGohCERRJoamsCgRPRdF1QjUXnHSGIR8DNpPnpJ/wAUmprJrJqIVJMw94HEki8YnpEkVGxuPpJApNCaSIg+D4JqNpklk9H9aIgikig1KaTU7UnzBTElFruz7WCuntlyqHVLLVcUFyYqJtVaak26RQhCO0ds0IsnZg7JFoiyz25TamJ1gmiKo7cxNEVExBvSdyiB3Ca6SY2mbUkxHSmqJKptKrQ+PDaZGRJFaNyKoKa0bTJBFJFMFUFyZg2kmUTMDGTM/YxkHz0pZTTMkWpItmp+MFd+mkrv7TuP9DtkWiLRRZpItUERQOIKriK8iSq/XJMzJrJpUdusixck9tdIxLhONVBVapgmBGki+iKiKyK4IqP7JIt3DslNi24tWoIpoPxNkd2kqyVPuK5IiiR2IN7B3LZ3oO7WXLldfReKEU2pk7NRFqoizUu3EREwJU71kTekV+TtXpPakY1sixYgmMWkm7Yg9wTkXCa6p+zWTWoVR+QqlrEG1EHdtwe4pKsiTv1k1TPWIF0QhCEIQvLYi7VB3qjvVndrJqqnyREQKBCEIQhCEIQhCF0VJ8DH4IREUkdo3tneg70nck2k+eiEL9lCEIQi5NNFN7msOiu3y2HcKLlFyP0ogiCIIgQjKybGLTm+oTJyr2TUYHDX75j4trGtz+jBBEEQRBmcvh4hm+oMm8V1VV1HH8Pk5hhcVj4ZJJP6EEEFVdNunM9QWLRm8rlZfTEx6si5Y4TKvXMTisHArkkkknrP0x4QZGVZxoy/UBk5N7Iq6YHD5eWcXw1vCk5zK97yPpKP7JJJJ+uuosy+jRlctj2DK5rIuldU1SUUzVVhcBcuUYXF4mIMZ6gy/bcfEI9KEk9JJ+q9S6bHI2bcX+Zrku5V26T8mpVHzaooWBaxKMXG5u1Zq/ncR1+o7UFz1HfkzMy9mXD05et2LORzuJbLHJ5eTNua9Ppv5uPYMjnC9m374yI+EI1EKT5PkiRjN5e8nF8VXlmNxeLjjGPymVF/mqYL+fk3yjjcu4WuDuyWuFxqTl+PmxUxjH0YzYx7NzJuW+BzKi16cLXA4VBawMS19kxS6Yjwn5mnhqblOVxV2xX/AAeUX+Iu2LVngKpptcFi0mVw+NXjXLU2rvC8fcw62MYx+bGMYxjGPpemuLV69duXMXk8iwcblRm5vXWiahjGMYxjGMYx+bGMu41i7cyuHmbmHi2caljGM2NjY2GMYxjGMYzYYxjGMYxjGMYx9WPzYxjGMYxj+hjGMYxjGMZsbGxsbGxsbGxsbGxsbGxubm5ubm5ubm5ubm5ubm5ubmxsbGxsbGxsbGxsbGxsbGxsbm5ubm5sbGxsbGxsbDGMYxjGMYxjNjY2NjY2NjY2NjYZMo2NjY2NhjGMYxjNoNoNjc2GMYxjNhjGMYxjGMYxjGMYxjGMYxjGMY4GMYxjGPxf0sfVjGPqxlM0jGMYxjGP62Pq/wBZ/WxjGMY/N/QxjH/iMY/8n//EACMRAAICAgIBBAMAAAAAAAAAAAARARICECAwIQMxQVATQFH/2gAIAQMBAT8B+uQhCFpCELgupbYxiEVKlSohCgk9tLpfapKFYFAoFAuNRC14HHFcntCFtaXWhael1sXhkQIQtIWlpwWIhlTz8ke/FC1YmXuJReRyY+/BCKlIJxgpJST8ck4ox9P+lIELoyxZjjl86X67GMYxjGMYxjGPmxjGMY/v/wD/xAAjEQADAAIBAwUBAQAAAAAAAAAAARECEhAgITADE0BQUUFh/9oACAECAQE/Afr6UpeKUpfNeicUpsbGxsUpWLm+GeWo3NmVlZS9FKUvPfppS9dKUpSlKUpfGkRc3wSkNlYPIpS8UpSlNWajcNhf4ZLt00ok2LD9EkudP00QkkZtQqLxSm6X8PcYs2heoj3Ee6jHNZGXqd+xuy+HDNYmeWM7FL8eEIQhqampDU1NSEJ0QhCEIQhCE8MJ8GfR/wD/xAA4EAABAgQCBggDCAMAAAAAAAABAAIDESExEiIQIzJBUWEEIDBAUnGBkRMzUBRCYnBygpKhssHR/9oACAEBAAY/Avzzp3Oyrpt3SumysqLh3S3UmKBU/tSEvVbRKoqhZWyQdLQcLqBc+rfTdUVlZUW4qrV/waKy0ZisioR7rPJUAkriXmr6K280L+iy4lbtbqpVFRVPe9ypVU7pdVdopLTQq+ixWyVslbBWyt3uszmD1XzWnTUS8+zsqNVBJbSzRSqvmrLYVtFwqALakpvjVW2T6LYc5U6OvkBUbDasz+xoFuV1Vxkp5z5KkM+pU8DZ+apDarNV1V6zRFWKqvn6rcVlhD2VIbPZXl5KpPv2lGtCuPZX0S3LNJbQ0WKyhXVe57+pdVP0Krl94r5SpDatlvsrN9vouJ5DW8SsIL382hfMwfqElOG9rvI95nHiNby3qXRIf7nqcaI52gOjaqHzuVhgsA57+7kF+N/hZVEQJQW8rol5JPPQHS+HC8blNrccTxu7tiiODW8Si3o7fiu42Ck+JJnhbQaAyHUlYAzCBdzrJnx3sfHdbH/od2nGiBvLesPRWfucsUaI5556QWw8DPE+iD3PL4nsNERzfltyt8l0ipsO4HRVSGsdyUmSht/DdTc6Z56ABUmgQ+0aoz4zPsgWQ8T/ABPqdL8J1kTI3R0k/p7ckJ+N1eAWpY1vN1UTFiOceo4xHESFAN5TXmJAe4jM2JT24Iw3uiRYX3HbxyPFEzfLdlWrgPd5mS1cGG3zqscd0zu4DR0h0WI1gmLlZMUU8gtR0HLxLlrQ0O/CZ9lrIgnwFSpdHh+rlrYhI4blbTfq71fql0bHCZudK6mIeN3ifXsSTYKUGGSeLlJ0SQ4NXyj+6i1kRjfKqzl7/WSMSENT/j2OCCzG7gswYzzctb0n+LVmER/m5Aw+jwwRvl2mw0+isPbquLyYb8RlK0kwBweHb+CvC/kscSJD4BouSgYsYNO8ATWd0R/rJOEGHhiSymaMJ7CIgphT3xXNzNlhHdnmEJvlRY4sRxeOO5GvxB+Pci+K2T2tyDcOPUDi1uIb5d4D4kJrncVPozwGHc7chgaMcpF28/lds/2rKysPo1/oWafp+UH/xAApEAADAAEDAwMEAwEBAAAAAAAAAREhEDFBUWFxIIGRMKGx8NHh8UDB/9oACAEBAAE/IfowhPXNIQhCE0n0ZrNJ656YQhP+uE1hCfRhCaQmk+pCE0mkJpCEIQhBeNJpCEIQhCEIQhPVCE1hCi9Z6KCB9I9BaqFpCaTSEIJ3p2CFBI3I4Rty9MDSokkVwWL50Qi9EZMsTTNC0EEEvIh5MEK1hFckcnYQPoGtEiHpEjTY33IY0hiGw6E71IRLkULwEl5YiuTwijM9yUNJuStkWKxwINTRV0O1pONmYukhIfAnsQ+wHtGP3PJDZxomQKR3E8Iq0oV7m4hdE4TUluOqEpLlKhh4DwVrHXdirlmzGzeYQg9KImqpQwroQKMlihbmEdkYracXYb2pdHVZNc1EY2R1yFYh5SwdgQ6bp3N+k5uRK1GOJlZ37GZqjlbm5vgTUTctImbX4PMc1uS3YVRsp3Z53ubZwex5L5rsUz7z7H6gRtTvZuGPsrsJbpPwNLawdmNWOl7icsFdQpcj7ZK8PwFsx7gg5n3H9hAkjScbDYlrf+x1uR5Pkc4urcha6FFpEzfAxujokkJnkZvCpg2rQKFN52qXUYzlfks2J6FcKDG7YyEIQhCE0gsimUQJMWidj4ObYKTyJFsPK21MMy8DMpENmNnpNIQhCEIQmjWiZ8GPOBPR8kOE62i+4JfH2RBvPIi9wRzBdjc22Ju3xGafZF/UGzfCJ39hviQ1gtfhjsmITw7oz+RwHBBoaGiDRNBVyqSBC3X7mCLHNdDxqHubEe821PyV2PLQlw2kpskNd6kHNXmFOWQR0PweBKz2UCtjzjqT9hq2R5GrL7riifG14Gu406jQ03wNMjO9zS9mbyLgED2wcpQJN4dIauYOGj+SeRxIeEbYkXGo4uNXnJ4ONfYd/cDgXeab5H3D6eGNk8EN/QaINEGjPUafUaIPRcFfIoKJ8F1u3pBpuWJ1H4C4T5YhHXX2Hxi08K85G3gvCHdai0azEh4a7DDDDDQ0NEIJlt9+kV5Icor/AEN5npCEEhDkHQpHR+p7LDDDD0GGIQ5bO1fc3UbMyJCT6CYXej+PIjugS9k92R2ftoLoo9hflLwi9RG9RhoaGMYxjIJ+lCEIQhCQkJCCC1bDUiN2RDVCY2P3HEtu+IQfaY0NDQ0QQtEIQhCEJCQl6QFafbzWeXsb8n7bFJnu8L2JWPU3v4fEv5F5RXk3liDQx6IQhCEJCEJCQkIJ6CMQf/oeyJq9z+Y1K921bIbkbhl8Ldi9TPcft0F1GMeq0QhCEIQtRB3U27YimXXf6srNO/Y5LdxBG2hwdjGT+fYXuZrpLH6ZIaqaa0vicCCDQ9UIQghaMnsIQtHkq272H5j/AH2PKwGELaiyVhb238sVxfKUBuF9X4Nz7ujU1si0m8LL/j04xj0WqEIhoiGiVkl1ZQa0cbfkvv8A1GR/abu2ohATYguWMach8HpwQ7R/rHQWi1aXtl3fwQGzxPzqPUY9EIgtEO3QhWOauTrLiU9S/jYbMFtdl4Qi3Vje4Yx4DDw4JX0i6GzyZdm3YW6kbVi57DqLPpEo3N8/+HzBL/kfdGMKMMoiUR2WjpUzy4YoafxJfLN33XkvkZR8rTE+RjGmNEEITKWY0I3f0/Qd+C3PgJdsKR3Hm9Kuo36jhjYncVA2rIrqX1IdQ2djH4qu+3SWknuPjYYbDYbY2N6JidtFZf8ACSvgzob2kTGlp5rL8jM9tSzeZ7w+xZm2Yv1gWItZa+wkHBAkPtVg/Mn/AINn3l/7M3CfF+BjsAZH9xsbGMYxsbKK9hPuNU2OsHPX4Q9ylF3MoZ878LyYwXBxgpC3bQ64d3/wO+8Kq2tksDNCVql2p90BPwFBl1Rl9GMo5XKl8pWS5m59AYYbGxsbGxsegitBaKCFEkEu1fLKExu0/oRzv4Zv2C++Hs9R5ExMTG5VtOlXuX0Bhhhllhhh6CZSiYmJiCCCc15L89Tnxh/2HRXB0KK9WDLLLDDDDD+gPrXoIIIILQpdSlGxsbGxhhhhBaCCCCYmJiYmJiYvoADLLLDDDD1CQgSCKKKKKC+kALDDDDDDLL9MEEEFor0/8vWGyyyywwyy/XmWmvq4AMzkegMMP16UVPdR+hk9Pzo3XT/i/fQy/SBfVB8Lkg8xl+qClKU8ilKUpSl1KX0hS6mVD9KGul+uAmXoylKUpSsoh5FLorKUrK9KUpSl9FKUpS/QUpS6PL1ArKUpS6KUvovpCs9zBUVemlKUpS+qlL6qUulL6BSl+g/rv6//2gAMAwEAAgADAAAAEG2/1w763/8AtddM8WbRjQgDzziR6rYL91ONOcvcls0ZsLskgp0ImDKfuQTO5BcUuloWXEo+wHicGoXNNlGECLCC5CX8xr+XgdcxqisQJnZy0Z38c8+PuIRgd/uQz1sL3w+W0YFl1pzfkk0A/BMxCBQij3gZpJJs/W3K9FUWUhwMP7dtSksw2H58ZroTcNUPmRYJRw2SOJVKoZA87ZrjsVB1nscbgZDp/usyAX26zHDcYTUsJ9HJ5yRtK4VhbKTuR6t0HKoeBs3FztVeV7J8i1Q6/wDXLi5wIBUz4ihQqhv30zkXEWRfCIoDLn3kWD/2rBBO+4QF9aG6ZUBAeA9DDhfDBdc+f//EAB8RAQEBAAICAwEBAAAAAAAAAAEAERAhMVEgQWEwQP/aAAgBAwEBPxD/AG5/DOMssss4z5Gz4DFllnDbbYuuQbOKBLnDXDUNtQ+Bi73XyxBzou1t0vcgksthYWBg92hIl27ssssssjICPwu7b7v0yH3HBNJLLJLIFngh7v034Wnq1u7OGWWWXZ92vdrZEB7sWWcMmJZZwEFkEEEcGEj6u3gllkEEEQQShPrL7LXgxicCBECylMnhaJFHvJLORQlHgk8mOoZFpMKeYsxfNknAi3ywEowkO8vwhZ/O0NgH1APHDLLIggsn8W2Z4FnDLLLOHgYeDgPmsssQhT+P/Y8A22222/wALbbbbbbbbbbbbbbbbbbbbbbbbbbbbbbb8dttttt42223/B//xAAfEQADAAMAAwEBAQAAAAAAAAAAAREQITEgQVFAYTD/2gAIAQIBAT8Q/fcXNKUpSlKUpfEL4hSlE/Bm8aKi4ptiIQJEDUga4uhzw34sD3ppqG0tCZlLljaKJNiaCUxSlKXDo2x/1miXo/hCZ6Hik4nZSiYg3LwTfw38EhH9IaLgsFKaZF8NFHgrxBBBBBsuGxsbGylNsa+jR0vwog2UbGyjY2JuBT0Wp6MXBs+4IJjwMPAn7ehKuiOxqxktJ0huUpRMeRF+xzEPfoapLbbCWcJDkMauLCiDC4A2DStjLlK6o1nMHqORv9jZ9KUpRjZSlyqjddPJSlyhDQ0NYY2UpSlwhISGWWX54kEEUUGiDX+YAIJEIQhCEyQhCEIQhCYmIQmEIQnhCEIQhCEIT8P/xAAoEAEAAgEEAgICAwEBAQEAAAABABEhMUFRYRBxgZEgobHB0fDhMPH/2gAIAQEAAT8QCVKlSoErqVK/AVKlSpUrwrwYYYfBXhUqBAiO0CVAhFSvCvCpUqVKleCSokr8AxUqVAlQJUCVAgSpUqVKlSpUqVKlSpUryVK8jFSoECBAgQIeRXkrwqVKlSpUqVKiSvwAeFQgioQQfgBGV2ims79yvBPwJ1/H3wsqluIECVAgeB4AleAoNtN5gpfYlPuWXBEWvuPu2FmCNJlFdpdl9WING5RvERvAhAQXEsQU2iDrRhSzKC2W9KIWqt4IaWWJFVcpqUe5zNRXAnRRWoNQ2STFeiI3bhoSKTAEC2JWppEcVUFqkX4LVpAcS7aBRZBFjOxFVFRNAVzKCBdYxB3ZUouFELqfuM4CEyqNQYZIaqRXBEnAWAt0LAGARTQmRioZogaGWa6gOzERaS0sxEBdLEr/AOzL1AW5iOCvcC8juzXLDJoKgpwheqNTBIENIARDrrAHA9RefsljBiOuuoXutlIW5gWasEFBqG4mKOw6hvFkoUhvDci9syNRLVg4CKcCKQA6qBdAzttEcHzNgW4X7QaKhXiWoPLvtBwTDYyRxGI0VcvVaUDBH1pgVKgmNJrTmaADqUbcB3lSLeNiAWRLPUrd4uZnBwEPoHxvLtR3LQdU50ihCxVJgjFiWdWZlopyhC9iWQaCd4p1lFjrDSbI80Zm5kplRdLdYaT0lHoL1ZlvaWzV3UJcNij+jMZ5i4sFe4Fw8QlH3LVB7G37hm2my0+5WcwLL/JloSZx8+oWVjUMkEDynRU7BHUmezFc3GUSnMIX1jELCNgS6gC+ElyaHO0D2gC3QuAEC3A/UWwBu0XDobc25mA0B/3mW8XGKb2eSlh8xRQjtg+SwqGRn/AixAlpTHzFBynCoCVGD/xjW0c1DuqmKjbRg/3AyNG0RfzOSWqxVMiWcIxYBQ0DTFSgr7aw4pZWb4blJdSoEYRFHuGiLf8A9ENyg5tuJx4Af0iSqHolIl3vcuWfziWnRvREBsTkj4HoGUwtfDK4BW9rGcN/pTMQJeZk5N205f1AENVy3k9u8o1mxbHVppMkObh0ZmyX9xMwQPVLi8QLqxTrGGGGGPSMJ4MWNZZyks5+pwVKuYHEv4lssPEJQo4qENKWtguF0AvVZUGd3EXBm+uMlp2SLRzKyllrlMfLZZZXGWE8FTWB9y61B7I4UpOYSH1RuHBxHJibwjWXBC9jDR/WIpKfWk+AsKn7K1Y/SHpsN8OLxTRf7RgMvfR9xSse0ky52qwHyq7J8VL3bNIlAJ5CoJaC5XRMfR+ZYqP4UFugzJTPYmUvNaWwopG+sSCtdQ3VIMdL1bEIc0lStBOGXZPxixG3fMDqugMtS7KgWN3bBLM2g1FrMYMpuuI4s3AAgVV2sPaW53XgjcBhA/qGw2zr+6iStGLQf1DAqMJQlN48f+Id7viUFrfFM/4qf4AgOSXb/uUv/ZOl/UQgRqIxDagmtU1CpfWwfxN9cOc1BOWloX9y/PTRcn6JdMz/ACi5U2rta+YNZtcS2c7gqvWIYlZ1HPzURWWyqP8AYEWka0iBBl0h+pjUrYcBVygklDiTTG4s0LsMWmS5UVysa7Et2jKxA4REap+Zyj9zDRSU3B9RPcvPbFUwoUDkKma+HAJgLTiiBkU0CE1pxWr+2LU/Tf8AUW4aOLwRm/RLZ3aVG3WcJLE1LXiAuts2RhuYhhVH1G0W4nw/BTonROmdHhesZUL4aXCSiZ5zHSA9ENxeyPBHQmBA4YDCCDxS3itwdMLM5A/uZdbpg+IPiDmezF4/FI6It2i8eSjfqYihv7LRtgL9SkFutOoK5iOzOciNpzD8w2Uvi6YvorC5UWw3VgLPVVtpa39xg24cSzqsYaCCbpYtVlorwHC4hDYi4CN6l92CCMeqDxUv/qhfMF5YnuLwEEHUH473XOnxVxHJom5MvliSt2t36UX8Qe1diPvJ+53In+FfxgHyAggggggh/OsPonXPWaYrdh6Dl+oKnjQC32HB8r6ju6LD6jQfBBAFqtByxFFq2A7dPf0ZqTWRZ51F8PRAcQEQv8QEHgEMD8KC8wYW6GXqGC8TQ8f2F9QJZ2WrDt6fARou2ojtY/SCDzCA/wC3Q7lUgZMF66fHPcXLB+DPgIIHgYPAQQwwQeLLRMUvllaUwXC/8aV7nx/43YZ+SyyyuaM0jqPNcRZepbv3B1RxaG4ZW46lGsc2YzqGiNjNPUXU5VDb8beIvwQQQQIIUFrGXhBD5keJWJfoOWYFnQO32HB8r6i9Q0+gDQ+CWEtX9QNN7xE6YNSvkH9BCCZgD+gy/L8QxqHuJdtu1LXD5HyQRw4GSyi62RXc1ReWs9Y6+BCC4IJYTQJVV6PgnO9UAPmcjZNF7X9XDH33sdvP1UyVtUT7WatR+YMs+SWaA+ZZakvpAMnar1CFziJ5LK+ATfXMMNZlhChzR+u3ykOsywV/wM449fEQVrCcxxcwQQ6QdQGBmAgLWOz+LNX6DtYFo4P1Fh9s3kMFH0YJcLTlYCxJ3DyBKrWIPG50ALaBlV4JcH/1/gjnNucRnXEq41KZMB1IdhqF3LdTRWGvMfThAX0Wl0AbL5+wnw5itAafyy3NpDvcg71ojl12hIr/ANefoY3QfQ79sB+Ljerox+QL9RudZdcTjMWs6z2JaOBCzggg3qP0GnzU0g4Ev6H9sZ2zgHwolj9VCYXlvEQ/7R4qP/Fgy6V7YwAad5iep95vESrYLzKtzTnMLU4kthaE1Jp1iBCKgVa5Ahqs3VTUobduTQ+CMADgwHE505k5zE5iRvvwPyiGBaAtwayr4Ysq+GftI44Mf0Rl+YcLtNSe1/qGAndX2YICO5/4in8xG9NWq+Hfo/DGbcawOYHmI9xPS/cQ1Z9wnmPLEOUFJg1baAg4h+x9FmNJt/qn9SkQerWfgn8x2PWlZ5uzGdXxOPwZxOiPF3rMA4Ezf/iLFFtaL7xNyu1CY2tBcwXMKgiFIlibwFr5kvxscJLzr7aouQUBvF+oAgPBH6YuRlIdKHqWH/kiT7AWJimagD8C/wBxRygv7FbHTq4dKqC7NArW7KrWLqgWs0skCzTHcPC9/Idnj7/P98LmIvWLyxeYeKeSBW95ouOHpwMsJYiU+A/gVDUTAHKbq7h8kX6F7ub3h2MHgDmDzDYJTIuqWQPMBzKRMH8frvnfO+d8c/COC5nIwOZ2wPIi1cBWQ0pdfK4BQlsXnuBs6c+4LJJXkbtrgXYh3nZOyHeHbyPkrflvzRV6w7Q7w7wkk8QgXMXnwJEieAgkm3gy/lVbu8WTWds7Yd4PMDmB/wDFVVCAQHMpK8xPMTzA5hcw+YXMLmFzD5hxygPAJcqBzA5gcweYPMDmBzAcwPMO8HDvPee8949p2ztnf+53TundH5nfO6OesO8O8O07IPMHmDzDtOyC5hXeD5h3hD2nvDvMt5fmMrzO2LEiu8SL4E5iIdocWHaHtCeyEdsO7CCDtDtDtPbye0VzLcyyoS2KqRfSP8R7Rxj3nZOyLFcxfMycUeoYw7wjIXmYN7F/8hsv5f8AkB/sUo6B8P8AsWmB6KntBcy0vPdl+WW5luWe8e8e0e37jKuY92NoudhFrWfPwIPSU8fUO8O8IJOxDt407lOYX3/cBAm5GDS9ilv6jwE7JZ4qreLi+orki+Y9o+ke/gJIPaHtCSaTHhgtyCYKHOUlY32h0i5ju/cr3AwO2NMZ7scTYR4TsiHeU5iOf3GX0luoP/EQOoeql5fsl52l+ZbmdkvzORmiPeV5gocUvL+J5JndiIiIieCPrE8kU5Io7RriCmOsPw8UF5hfMPcKlkElJSFNH9y+yRXPiTzK8z1nrLbEuiupeK6iuYwRn5Bgy+WA2YLm4CpbhluGXPE9wMUTo/cs4JZwRTqLwxRx5nhFVrLG9xEWXB7lwQlIGVgvEF4Jb1LepbzLczvcB3BO5Sp0mie09vwFy5cWX3FZc0HqE3YTeb+Dw6Q8bPgmiKwm8NPxdGMfLP/Z;opacity=50;">
          <mxGeometry as="geometry" height="910" width="607" y="80" x="100"/>
        </mxCell>
        <mxCell id="L4bOj4LlUDrryAcFYIaK-3" value="Airfields" parent="L4bOj4LlUDrryAcFYIaK-1" vertex="1" style="shape=step;perimeter=stepPerimeter;whiteSpace=wrap;html=1;fixedSize=1;opacity=50;fontSize=40;fontFamily=Courier New;labelBorderColor=#000000;labelBackgroundColor=#ffffff;">
          <mxGeometry as="geometry" height="130" width="467" y="190" x="132"/>
        </mxCell>
        <mxCell id="L4bOj4LlUDrryAcFYIaK-4" value="Airfields" parent="L4bOj4LlUDrryAcFYIaK-1" vertex="1" style="shape=step;perimeter=stepPerimeter;whiteSpace=wrap;html=1;fixedSize=1;opacity=50;fontSize=15;fontFamily=Courier New;labelBorderColor=#000000;labelBackgroundColor=#ffffff;">
          <mxGeometry as="geometry" height="40" width="160" y="120" x="467"/>
        </mxCell>
        <mxCell id="L4bOj4LlUDrryAcFYIaK-5" value="Flight Log" parent="L4bOj4LlUDrryAcFYIaK-1" vertex="1" style="shape=step;perimeter=stepPerimeter;whiteSpace=wrap;html=1;fixedSize=1;opacity=50;fontSize=15;fontFamily=Courier New;labelBorderColor=#000000;labelBackgroundColor=#ffffff;">
          <mxGeometry as="geometry" height="40" width="160" y="120" x="323"/>
        </mxCell>
        <mxCell id="L4bOj4LlUDrryAcFYIaK-6" value="Navigate To" parent="L4bOj4LlUDrryAcFYIaK-1" vertex="1" style="shape=step;perimeter=stepPerimeter;whiteSpace=wrap;html=1;fixedSize=1;opacity=50;fontSize=15;fontFamily=Courier New;labelBorderColor=#000000;labelBackgroundColor=#ffffff;">
          <mxGeometry as="geometry" height="40" width="160" y="120" x="180"/>
        </mxCell>
        <mxCell id="L4bOj4LlUDrryAcFYIaK-7" value="Picture" parent="L4bOj4LlUDrryAcFYIaK-1" vertex="1" style="whiteSpace=wrap;html=1;aspect=fixed;labelBackgroundColor=none;fontFamily=Courier New;fontSize=21;opacity=50;">
          <mxGeometry as="geometry" height="120" width="120" y="370" x="140"/>
        </mxCell>
        <mxCell id="L4bOj4LlUDrryAcFYIaK-8" value="Create&lt;br&gt;New" parent="L4bOj4LlUDrryAcFYIaK-1" vertex="1" style="shape=step;perimeter=stepPerimeter;whiteSpace=wrap;html=1;fixedSize=1;opacity=50;fontSize=14;fontFamily=Courier New;labelBorderColor=none;labelBackgroundColor=none;">
          <mxGeometry as="geometry" height="130" width="87" y="190" x="583"/>
        </mxCell>
        <mxCell id="L4bOj4LlUDrryAcFYIaK-9" value="Pros:" parent="L4bOj4LlUDrryAcFYIaK-1" vertex="1" style="rounded=0;whiteSpace=wrap;html=1;labelBackgroundColor=none;fontFamily=Courier New;fontSize=12;fontColor=#000000;opacity=50;align=left;">
          <mxGeometry as="geometry" height="30" width="185" y="370" x="480"/>
        </mxCell>
        <mxCell id="L4bOj4LlUDrryAcFYIaK-10" value="Description" parent="L4bOj4LlUDrryAcFYIaK-1" vertex="1" style="rounded=0;whiteSpace=wrap;html=1;labelBackgroundColor=none;fontFamily=Courier New;fontSize=21;fontColor=#000000;opacity=50;">
          <mxGeometry as="geometry" height="50" width="186" y="370" x="276"/>
        </mxCell>
        <mxCell id="L4bOj4LlUDrryAcFYIaK-11" value="Edit" parent="L4bOj4LlUDrryAcFYIaK-1" vertex="1" style="rounded=0;whiteSpace=wrap;html=1;labelBackgroundColor=none;fontFamily=Courier New;fontSize=12;fontColor=#000000;opacity=50;">
          <mxGeometry as="geometry" height="16" width="260" y="504" x="140"/>
        </mxCell>
        <mxCell id="L4bOj4LlUDrryAcFYIaK-12" value="Delete" parent="L4bOj4LlUDrryAcFYIaK-1" vertex="1" style="rounded=0;whiteSpace=wrap;html=1;labelBackgroundColor=none;fontFamily=Courier New;fontSize=12;fontColor=#000000;opacity=50;">
          <mxGeometry as="geometry" height="16" width="260" y="504" x="405"/>
        </mxCell>
        <mxCell id="L4bOj4LlUDrryAcFYIaK-13" value="&lt;p style=&quot;line-height: 140%&quot;&gt;&lt;br&gt;&lt;/p&gt;" parent="L4bOj4LlUDrryAcFYIaK-1" vertex="1" style="rounded=0;whiteSpace=wrap;html=1;labelBackgroundColor=none;fontFamily=Courier New;fontSize=18;fontColor=#000000;opacity=50;align=left;verticalAlign=top;">
          <mxGeometry as="geometry" height="420" width="470" y="1040" x="141"/>
        </mxCell>
        <mxCell id="L4bOj4LlUDrryAcFYIaK-14" value="Browse Computer..." parent="L4bOj4LlUDrryAcFYIaK-1" vertex="1" style="rounded=0;whiteSpace=wrap;html=1;labelBackgroundColor=none;fontFamily=Courier New;fontSize=18;fontColor=#000000;opacity=50;fillColor=#999999;">
          <mxGeometry as="geometry" height="20" width="264" y="1064" x="316"/>
        </mxCell>
        <mxCell id="L4bOj4LlUDrryAcFYIaK-15" value="" parent="L4bOj4LlUDrryAcFYIaK-1" vertex="1" style="rounded=0;whiteSpace=wrap;html=1;labelBackgroundColor=none;fillColor=none;fontFamily=Courier New;fontSize=18;fontColor=#000000;opacity=50;">
          <mxGeometry as="geometry" height="45" width="264" y="1115" x="316"/>
        </mxCell>
        <mxCell id="L4bOj4LlUDrryAcFYIaK-16" value="Add Image" parent="L4bOj4LlUDrryAcFYIaK-1" vertex="1" style="rounded=0;whiteSpace=wrap;html=1;labelBackgroundColor=none;fillColor=none;fontFamily=Courier New;fontSize=18;fontColor=#000000;opacity=50;strokeColor=none;">
          <mxGeometry as="geometry" height="35" width="120" y="1056.5" x="150"/>
        </mxCell>
        <mxCell id="L4bOj4LlUDrryAcFYIaK-17" value="Description" parent="L4bOj4LlUDrryAcFYIaK-1" vertex="1" style="rounded=0;whiteSpace=wrap;html=1;labelBackgroundColor=none;fillColor=none;fontFamily=Courier New;fontSize=18;fontColor=#000000;opacity=50;strokeColor=none;">
          <mxGeometry as="geometry" height="35" width="120" y="1107" x="156"/>
        </mxCell>
        <mxCell id="L4bOj4LlUDrryAcFYIaK-18" value="Tips" parent="L4bOj4LlUDrryAcFYIaK-1" vertex="1" style="rounded=0;whiteSpace=wrap;html=1;labelBackgroundColor=none;fontFamily=Courier New;fontSize=21;fontColor=#000000;opacity=50;">
          <mxGeometry as="geometry" height="50" width="186" y="440" x="276"/>
        </mxCell>
        <mxCell id="L4bOj4LlUDrryAcFYIaK-19" value="Cons:" parent="L4bOj4LlUDrryAcFYIaK-1" vertex="1" style="rounded=0;whiteSpace=wrap;html=1;labelBackgroundColor=none;fontFamily=Courier New;fontSize=12;fontColor=#000000;opacity=50;align=left;">
          <mxGeometry as="geometry" height="30" width="185" y="415" x="480"/>
        </mxCell>
        <mxCell id="L4bOj4LlUDrryAcFYIaK-20" value="Landing Fee:" parent="L4bOj4LlUDrryAcFYIaK-1" vertex="1" style="rounded=0;whiteSpace=wrap;html=1;labelBackgroundColor=none;fontFamily=Courier New;fontSize=12;fontColor=#000000;opacity=50;align=left;">
          <mxGeometry as="geometry" height="30" width="185" y="460" x="480"/>
        </mxCell>
        <mxCell id="L4bOj4LlUDrryAcFYIaK-21" value="" parent="L4bOj4LlUDrryAcFYIaK-1" style="endArrow=classic;html=1;fontFamily=Courier New;fontSize=18;fontColor=#000000;exitX=0.5;exitY=1;exitDx=0;exitDy=0;" edge="1" target="L4bOj4LlUDrryAcFYIaK-13">
          <mxGeometry as="geometry" height="50" width="50" relative="1">
            <mxPoint as="sourcePoint" y="920" x="270"/>
            <mxPoint as="targetPoint" y="1370" x="150"/>
          </mxGeometry>
        </mxCell>
        <mxCell id="L4bOj4LlUDrryAcFYIaK-22" value="" parent="L4bOj4LlUDrryAcFYIaK-1" vertex="1" style="rounded=0;whiteSpace=wrap;html=1;labelBackgroundColor=none;fillColor=none;fontFamily=Courier New;fontSize=18;fontColor=#000000;opacity=50;">
          <mxGeometry as="geometry" height="45" width="264" y="1172" x="316"/>
        </mxCell>
        <mxCell id="L4bOj4LlUDrryAcFYIaK-23" value="Pros" parent="L4bOj4LlUDrryAcFYIaK-1" vertex="1" style="rounded=0;whiteSpace=wrap;html=1;labelBackgroundColor=none;fillColor=none;fontFamily=Courier New;fontSize=18;fontColor=#000000;opacity=50;strokeColor=none;">
          <mxGeometry as="geometry" height="35" width="120" y="1220.5" x="120"/>
        </mxCell>
        <mxCell id="L4bOj4LlUDrryAcFYIaK-24" value="" parent="L4bOj4LlUDrryAcFYIaK-1" vertex="1" style="rounded=0;whiteSpace=wrap;html=1;labelBackgroundColor=none;fillColor=none;fontFamily=Courier New;fontSize=18;fontColor=#000000;opacity=50;">
          <mxGeometry as="geometry" height="45" width="264" y="1230" x="316"/>
        </mxCell>
        <mxCell id="L4bOj4LlUDrryAcFYIaK-25" value="Cons" parent="L4bOj4LlUDrryAcFYIaK-1" vertex="1" style="rounded=0;whiteSpace=wrap;html=1;labelBackgroundColor=none;fillColor=none;fontFamily=Courier New;fontSize=18;fontColor=#000000;opacity=50;strokeColor=none;">
          <mxGeometry as="geometry" height="35" width="120" y="1278.5" x="120"/>
        </mxCell>
        <mxCell id="L4bOj4LlUDrryAcFYIaK-26" value="" parent="L4bOj4LlUDrryAcFYIaK-1" vertex="1" style="rounded=0;whiteSpace=wrap;html=1;labelBackgroundColor=none;fillColor=none;fontFamily=Courier New;fontSize=18;fontColor=#000000;opacity=50;">
          <mxGeometry as="geometry" height="45" width="264" y="1290" x="316"/>
        </mxCell>
        <mxCell id="L4bOj4LlUDrryAcFYIaK-27" value="Landing Fee" parent="L4bOj4LlUDrryAcFYIaK-1" vertex="1" style="rounded=0;whiteSpace=wrap;html=1;labelBackgroundColor=none;fillColor=none;fontFamily=Courier New;fontSize=18;fontColor=#000000;opacity=50;strokeColor=none;">
          <mxGeometry as="geometry" height="35" width="130" y="1341" x="153"/>
        </mxCell>
        <mxCell id="L4bOj4LlUDrryAcFYIaK-28" value="Picture" parent="L4bOj4LlUDrryAcFYIaK-1" vertex="1" style="whiteSpace=wrap;html=1;aspect=fixed;labelBackgroundColor=none;fontFamily=Courier New;fontSize=21;opacity=50;">
          <mxGeometry as="geometry" height="120" width="120" y="570" x="140"/>
        </mxCell>
        <mxCell id="L4bOj4LlUDrryAcFYIaK-29" value="Pros:" parent="L4bOj4LlUDrryAcFYIaK-1" vertex="1" style="rounded=0;whiteSpace=wrap;html=1;labelBackgroundColor=none;fontFamily=Courier New;fontSize=12;fontColor=#000000;opacity=50;align=left;">
          <mxGeometry as="geometry" height="30" width="185" y="570" x="480"/>
        </mxCell>
        <mxCell id="L4bOj4LlUDrryAcFYIaK-30" value="Description" parent="L4bOj4LlUDrryAcFYIaK-1" vertex="1" style="rounded=0;whiteSpace=wrap;html=1;labelBackgroundColor=none;fontFamily=Courier New;fontSize=21;fontColor=#000000;opacity=50;">
          <mxGeometry as="geometry" height="50" width="186" y="570" x="276"/>
        </mxCell>
        <mxCell id="L4bOj4LlUDrryAcFYIaK-31" value="Edit" parent="L4bOj4LlUDrryAcFYIaK-1" vertex="1" style="rounded=0;whiteSpace=wrap;html=1;labelBackgroundColor=none;fontFamily=Courier New;fontSize=12;fontColor=#000000;opacity=50;">
          <mxGeometry as="geometry" height="16" width="260" y="704" x="140"/>
        </mxCell>
        <mxCell id="L4bOj4LlUDrryAcFYIaK-32" value="Delete" parent="L4bOj4LlUDrryAcFYIaK-1" vertex="1" style="rounded=0;whiteSpace=wrap;html=1;labelBackgroundColor=none;fontFamily=Courier New;fontSize=12;fontColor=#000000;opacity=50;">
          <mxGeometry as="geometry" height="16" width="260" y="704" x="405"/>
        </mxCell>
        <mxCell id="L4bOj4LlUDrryAcFYIaK-33" value="Tips" parent="L4bOj4LlUDrryAcFYIaK-1" vertex="1" style="rounded=0;whiteSpace=wrap;html=1;labelBackgroundColor=none;fontFamily=Courier New;fontSize=21;fontColor=#000000;opacity=50;">
          <mxGeometry as="geometry" height="50" width="186" y="640" x="276"/>
        </mxCell>
        <mxCell id="L4bOj4LlUDrryAcFYIaK-34" value="Cons:" parent="L4bOj4LlUDrryAcFYIaK-1" vertex="1" style="rounded=0;whiteSpace=wrap;html=1;labelBackgroundColor=none;fontFamily=Courier New;fontSize=12;fontColor=#000000;opacity=50;align=left;">
          <mxGeometry as="geometry" height="30" width="185" y="615" x="480"/>
        </mxCell>
        <mxCell id="L4bOj4LlUDrryAcFYIaK-35" value="Landing Fee:" parent="L4bOj4LlUDrryAcFYIaK-1" vertex="1" style="rounded=0;whiteSpace=wrap;html=1;labelBackgroundColor=none;fontFamily=Courier New;fontSize=12;fontColor=#000000;opacity=50;align=left;">
          <mxGeometry as="geometry" height="30" width="185" y="660" x="480"/>
        </mxCell>
        <mxCell id="L4bOj4LlUDrryAcFYIaK-36" value="Picture" parent="L4bOj4LlUDrryAcFYIaK-1" vertex="1" style="whiteSpace=wrap;html=1;aspect=fixed;labelBackgroundColor=none;fontFamily=Courier New;fontSize=21;opacity=50;">
          <mxGeometry as="geometry" height="120" width="120" y="770" x="140"/>
        </mxCell>
        <mxCell id="L4bOj4LlUDrryAcFYIaK-37" value="Pros:" parent="L4bOj4LlUDrryAcFYIaK-1" vertex="1" style="rounded=0;whiteSpace=wrap;html=1;labelBackgroundColor=none;fontFamily=Courier New;fontSize=12;fontColor=#000000;opacity=50;align=left;">
          <mxGeometry as="geometry" height="30" width="185" y="770" x="480"/>
        </mxCell>
        <mxCell id="L4bOj4LlUDrryAcFYIaK-38" value="Description" parent="L4bOj4LlUDrryAcFYIaK-1" vertex="1" style="rounded=0;whiteSpace=wrap;html=1;labelBackgroundColor=none;fontFamily=Courier New;fontSize=21;fontColor=#000000;opacity=50;">
          <mxGeometry as="geometry" height="50" width="186" y="770" x="276"/>
        </mxCell>
        <mxCell id="L4bOj4LlUDrryAcFYIaK-39" value="Edit" parent="L4bOj4LlUDrryAcFYIaK-1" vertex="1" style="rounded=0;whiteSpace=wrap;html=1;labelBackgroundColor=none;fontFamily=Courier New;fontSize=12;fontColor=#000000;opacity=50;">
          <mxGeometry as="geometry" height="16" width="260" y="904" x="140"/>
        </mxCell>
        <mxCell id="L4bOj4LlUDrryAcFYIaK-40" value="Delete" parent="L4bOj4LlUDrryAcFYIaK-1" vertex="1" style="rounded=0;whiteSpace=wrap;html=1;labelBackgroundColor=none;fontFamily=Courier New;fontSize=12;fontColor=#000000;opacity=50;">
          <mxGeometry as="geometry" height="16" width="260" y="904" x="405"/>
        </mxCell>
        <mxCell id="L4bOj4LlUDrryAcFYIaK-41" value="Tips" parent="L4bOj4LlUDrryAcFYIaK-1" vertex="1" style="rounded=0;whiteSpace=wrap;html=1;labelBackgroundColor=none;fontFamily=Courier New;fontSize=21;fontColor=#000000;opacity=50;">
          <mxGeometry as="geometry" height="50" width="186" y="840" x="276"/>
        </mxCell>
        <mxCell id="L4bOj4LlUDrryAcFYIaK-42" value="Cons:" parent="L4bOj4LlUDrryAcFYIaK-1" vertex="1" style="rounded=0;whiteSpace=wrap;html=1;labelBackgroundColor=none;fontFamily=Courier New;fontSize=12;fontColor=#000000;opacity=50;align=left;">
          <mxGeometry as="geometry" height="30" width="185" y="815" x="480"/>
        </mxCell>
        <mxCell id="L4bOj4LlUDrryAcFYIaK-43" value="Landing Fee:" parent="L4bOj4LlUDrryAcFYIaK-1" vertex="1" style="rounded=0;whiteSpace=wrap;html=1;labelBackgroundColor=none;fontFamily=Courier New;fontSize=12;fontColor=#000000;opacity=50;align=left;">
          <mxGeometry as="geometry" height="30" width="185" y="860" x="480"/>
        </mxCell>
        <mxCell id="rIPhgjOFCN-9i4veBXx6-0" value="Tips" parent="L4bOj4LlUDrryAcFYIaK-1" vertex="1" style="rounded=0;whiteSpace=wrap;html=1;labelBackgroundColor=none;fillColor=none;fontFamily=Courier New;fontSize=18;fontColor=#000000;opacity=50;strokeColor=none;">
          <mxGeometry as="geometry" height="35" width="120" y="1160" x="120"/>
        </mxCell>
        <mxCell id="rIPhgjOFCN-9i4veBXx6-2" value="" parent="L4bOj4LlUDrryAcFYIaK-1" vertex="1" style="rounded=0;whiteSpace=wrap;html=1;labelBackgroundColor=none;fillColor=none;fontFamily=Courier New;fontSize=18;fontColor=#000000;opacity=50;">
          <mxGeometry as="geometry" height="45" width="264" y="1350" x="316"/>
        </mxCell>
        <mxCell id="rIPhgjOFCN-9i4veBXx6-4" value="Save" parent="L4bOj4LlUDrryAcFYIaK-1" vertex="1" style="rounded=0;whiteSpace=wrap;html=1;labelBackgroundColor=none;fontFamily=Courier New;fontSize=18;fontColor=#000000;opacity=50;fillColor=#999999;">
          <mxGeometry as="geometry" height="30" width="264" y="1410" x="316"/>
        </mxCell>
      </root>
    </mxGraphModel>
  </diagram>
  <diagram id="NWJFaFuNC5qpcSBnvmsX" name="Page-3">
    <mxGraphModel grid="1" dx="1030" dy="646" gridSize="10" guides="1" tooltips="1" connect="1" arrows="1" fold="1" page="1" pageScale="1" pageWidth="827" pageHeight="1169" math="0" shadow="0">
      <root>
        <mxCell id="hIHgGYmMEe91IJO-j30--0"/>
        <mxCell id="hIHgGYmMEe91IJO-j30--1" parent="hIHgGYmMEe91IJO-j30--0"/>
        <mxCell id="hIHgGYmMEe91IJO-j30--11" value="" parent="hIHgGYmMEe91IJO-j30--1" vertex="1" style="group" connectable="0">
          <mxGeometry as="geometry" height="1040" width="680" y="80" x="80"/>
        </mxCell>
        <mxCell id="hIHgGYmMEe91IJO-j30--2" value="" parent="hIHgGYmMEe91IJO-j30--11" vertex="1" style="rounded=0;whiteSpace=wrap;html=1;fillColor=#000047;fontSize=12;">
          <mxGeometry as="geometry" height="1040" width="680"/>
        </mxCell>
        <mxCell id="hIHgGYmMEe91IJO-j30--14" value="v" parent="hIHgGYmMEe91IJO-j30--11" vertex="1" style="group;rotation=-1;" connectable="0">
          <mxGeometry as="geometry" height="90" width="133" y="881" x="61"/>
        </mxCell>
        <mxCell id="hIHgGYmMEe91IJO-j30--6" value="" parent="hIHgGYmMEe91IJO-j30--14" vertex="1" style="shape=manualInput;whiteSpace=wrap;html=1;labelBackgroundColor=#7EA6E0;fillColor=#00005C;fontSize=12;fontColor=#7EA6E0;strokeColor=none;size=17;rotation=-1;">
          <mxGeometry as="geometry" height="25.538461538461536" width="58.142076502732245" y="1" x="-1"/>
        </mxCell>
        <mxCell id="hIHgGYmMEe91IJO-j30--7" value="" parent="hIHgGYmMEe91IJO-j30--14" vertex="1" style="shape=manualInput;whiteSpace=wrap;html=1;labelBackgroundColor=#7EA6E0;fillColor=#00005C;fontSize=12;fontColor=#7EA6E0;resizeWidth=1;resizeHeight=1;flipH=1;strokeColor=none;size=17;rotation=-1;">
          <mxGeometry as="geometry" height="25.538461538461536" width="58.142076502732245" y="-1" x="74"/>
        </mxCell>
        <mxCell id="hIHgGYmMEe91IJO-j30--9" value="" parent="hIHgGYmMEe91IJO-j30--14" vertex="1" style="shape=manualInput;whiteSpace=wrap;html=1;labelBackgroundColor=#7EA6E0;fillColor=#00005C;fontSize=12;fontColor=#7EA6E0;rotation=-26;strokeColor=none;">
          <mxGeometry as="geometry" height="25.538461538461536" width="58.142076502732245" y="65" x="15"/>
        </mxCell>
        <mxCell id="hIHgGYmMEe91IJO-j30--10" value="" parent="hIHgGYmMEe91IJO-j30--14" vertex="1" style="shape=manualInput;whiteSpace=wrap;html=1;labelBackgroundColor=#7EA6E0;fillColor=#00005C;fontSize=12;fontColor=#7EA6E0;rotation=24;flipH=1;flipV=0;strokeColor=none;">
          <mxGeometry as="geometry" height="25.538461538461536" width="58.142076502732245" y="64" x="59"/>
        </mxCell>
        <mxCell id="hIHgGYmMEe91IJO-j30--8" value="" parent="hIHgGYmMEe91IJO-j30--14" vertex="1" style="shape=delay;whiteSpace=wrap;html=1;labelBackgroundColor=#7EA6E0;fillColor=#00005C;fontSize=12;fontColor=#7EA6E0;rotation=-90;strokeColor=none;">
          <mxGeometry as="geometry" height="22.346153846153843" width="116.28415300546449" y="12" x="7"/>
        </mxCell>
        <mxCell id="hIHgGYmMEe91IJO-j30--31" value="" parent="hIHgGYmMEe91IJO-j30--11" vertex="1" style="shape=manualInput;whiteSpace=wrap;html=1;labelBackgroundColor=#7EA6E0;fillColor=#00005C;fontSize=12;fontColor=#7EA6E0;strokeColor=none;size=17;rotation=-1;">
          <mxGeometry as="geometry" height="25.538461538461536" width="58.142076502732245" y="881.5" x="479.7586206896551"/>
        </mxCell>
        <mxCell id="hIHgGYmMEe91IJO-j30--32" value="" parent="hIHgGYmMEe91IJO-j30--11" vertex="1" style="shape=manualInput;whiteSpace=wrap;html=1;labelBackgroundColor=#7EA6E0;fillColor=#00005C;fontSize=12;fontColor=#7EA6E0;resizeWidth=1;resizeHeight=1;flipH=1;strokeColor=none;size=17;rotation=-1;">
          <mxGeometry as="geometry" height="25.538461538461536" width="58.142076502732245" y="879.5" x="554.7586206896551"/>
        </mxCell>
        <mxCell id="hIHgGYmMEe91IJO-j30--33" value="" parent="hIHgGYmMEe91IJO-j30--11" vertex="1" style="shape=manualInput;whiteSpace=wrap;html=1;labelBackgroundColor=#7EA6E0;fillColor=#00005C;fontSize=12;fontColor=#7EA6E0;rotation=-26;strokeColor=none;">
          <mxGeometry as="geometry" height="25.538461538461536" width="58.142076502732245" y="945.5" x="495.7586206896551"/>
        </mxCell>
        <mxCell id="hIHgGYmMEe91IJO-j30--34" value="" parent="hIHgGYmMEe91IJO-j30--11" vertex="1" style="shape=manualInput;whiteSpace=wrap;html=1;labelBackgroundColor=#7EA6E0;fillColor=#00005C;fontSize=12;fontColor=#7EA6E0;rotation=24;flipH=1;flipV=0;strokeColor=none;">
          <mxGeometry as="geometry" height="25.538461538461536" width="58.142076502732245" y="944.5" x="539.7586206896551"/>
        </mxCell>
        <mxCell id="hIHgGYmMEe91IJO-j30--35" value="" parent="hIHgGYmMEe91IJO-j30--11" vertex="1" style="shape=delay;whiteSpace=wrap;html=1;labelBackgroundColor=#7EA6E0;fillColor=#00005C;fontSize=12;fontColor=#7EA6E0;rotation=-90;strokeColor=none;">
          <mxGeometry as="geometry" height="22.346153846153843" width="116.28415300546449" y="892.5" x="487.7586206896551"/>
        </mxCell>
        <mxCell id="hIHgGYmMEe91IJO-j30--41" value="" parent="hIHgGYmMEe91IJO-j30--11" vertex="1" style="shape=manualInput;whiteSpace=wrap;html=1;labelBackgroundColor=#7EA6E0;fillColor=#00005C;fontSize=12;fontColor=#7EA6E0;strokeColor=none;size=17;rotation=-1;">
          <mxGeometry as="geometry" height="25.538461538461536" width="58.142076502732245" y="817.5" x="269.7586206896551"/>
        </mxCell>
        <mxCell id="hIHgGYmMEe91IJO-j30--42" value="" parent="hIHgGYmMEe91IJO-j30--11" vertex="1" style="shape=manualInput;whiteSpace=wrap;html=1;labelBackgroundColor=#7EA6E0;fillColor=#00005C;fontSize=12;fontColor=#7EA6E0;resizeWidth=1;resizeHeight=1;flipH=1;strokeColor=none;size=17;rotation=-1;">
          <mxGeometry as="geometry" height="25.538461538461536" width="58.142076502732245" y="815.5" x="344.7586206896551"/>
        </mxCell>
        <mxCell id="hIHgGYmMEe91IJO-j30--43" value="" parent="hIHgGYmMEe91IJO-j30--11" vertex="1" style="shape=manualInput;whiteSpace=wrap;html=1;labelBackgroundColor=#7EA6E0;fillColor=#00005C;fontSize=12;fontColor=#7EA6E0;rotation=-26;strokeColor=none;">
          <mxGeometry as="geometry" height="25.538461538461536" width="58.142076502732245" y="881.5" x="285.7586206896551"/>
        </mxCell>
        <mxCell id="hIHgGYmMEe91IJO-j30--44" value="" parent="hIHgGYmMEe91IJO-j30--11" vertex="1" style="shape=manualInput;whiteSpace=wrap;html=1;labelBackgroundColor=#7EA6E0;fillColor=#00005C;fontSize=12;fontColor=#7EA6E0;rotation=24;flipH=1;flipV=0;strokeColor=none;">
          <mxGeometry as="geometry" height="25.538461538461536" width="58.142076502732245" y="880.5" x="329.7586206896551"/>
        </mxCell>
        <mxCell id="hIHgGYmMEe91IJO-j30--45" value="" parent="hIHgGYmMEe91IJO-j30--11" vertex="1" style="shape=delay;whiteSpace=wrap;html=1;labelBackgroundColor=#7EA6E0;fillColor=#00005C;fontSize=12;fontColor=#7EA6E0;rotation=-90;strokeColor=none;">
          <mxGeometry as="geometry" height="22.346153846153843" width="116.28415300546449" y="828.5" x="277.7586206896551"/>
        </mxCell>
        <mxCell id="hIHgGYmMEe91IJO-j30--46" value="v" parent="hIHgGYmMEe91IJO-j30--11" vertex="1" style="group;rotation=-1;" connectable="0">
          <mxGeometry as="geometry" height="90" width="133" y="655.5" x="61"/>
        </mxCell>
        <mxCell id="hIHgGYmMEe91IJO-j30--47" value="" parent="hIHgGYmMEe91IJO-j30--46" vertex="1" style="shape=manualInput;whiteSpace=wrap;html=1;labelBackgroundColor=#7EA6E0;fillColor=#00005C;fontSize=12;fontColor=#7EA6E0;strokeColor=none;size=17;rotation=-1;">
          <mxGeometry as="geometry" height="25.538461538461536" width="58.142076502732245" y="1" x="-1"/>
        </mxCell>
        <mxCell id="hIHgGYmMEe91IJO-j30--48" value="" parent="hIHgGYmMEe91IJO-j30--46" vertex="1" style="shape=manualInput;whiteSpace=wrap;html=1;labelBackgroundColor=#7EA6E0;fillColor=#00005C;fontSize=12;fontColor=#7EA6E0;resizeWidth=1;resizeHeight=1;flipH=1;strokeColor=none;size=17;rotation=-1;">
          <mxGeometry as="geometry" height="25.538461538461536" width="58.142076502732245" y="-1" x="74"/>
        </mxCell>
        <mxCell id="hIHgGYmMEe91IJO-j30--49" value="" parent="hIHgGYmMEe91IJO-j30--46" vertex="1" style="shape=manualInput;whiteSpace=wrap;html=1;labelBackgroundColor=#7EA6E0;fillColor=#00005C;fontSize=12;fontColor=#7EA6E0;rotation=-26;strokeColor=none;">
          <mxGeometry as="geometry" height="25.538461538461536" width="58.142076502732245" y="65" x="15"/>
        </mxCell>
        <mxCell id="hIHgGYmMEe91IJO-j30--50" value="" parent="hIHgGYmMEe91IJO-j30--46" vertex="1" style="shape=manualInput;whiteSpace=wrap;html=1;labelBackgroundColor=#7EA6E0;fillColor=#00005C;fontSize=12;fontColor=#7EA6E0;rotation=24;flipH=1;flipV=0;strokeColor=none;">
          <mxGeometry as="geometry" height="25.538461538461536" width="58.142076502732245" y="64" x="59"/>
        </mxCell>
        <mxCell id="hIHgGYmMEe91IJO-j30--51" value="" parent="hIHgGYmMEe91IJO-j30--46" vertex="1" style="shape=delay;whiteSpace=wrap;html=1;labelBackgroundColor=#7EA6E0;fillColor=#00005C;fontSize=12;fontColor=#7EA6E0;rotation=-90;strokeColor=none;">
          <mxGeometry as="geometry" height="22.346153846153843" width="116.28415300546449" y="12" x="7"/>
        </mxCell>
        <mxCell id="hIHgGYmMEe91IJO-j30--52" value="" parent="hIHgGYmMEe91IJO-j30--11" vertex="1" style="shape=manualInput;whiteSpace=wrap;html=1;labelBackgroundColor=#7EA6E0;fillColor=#00005C;fontSize=12;fontColor=#7EA6E0;strokeColor=none;size=17;rotation=-1;">
          <mxGeometry as="geometry" height="25.538461538461536" width="58.142076502732245" y="656" x="479.7586206896551"/>
        </mxCell>
        <mxCell id="hIHgGYmMEe91IJO-j30--53" value="" parent="hIHgGYmMEe91IJO-j30--11" vertex="1" style="shape=manualInput;whiteSpace=wrap;html=1;labelBackgroundColor=#7EA6E0;fillColor=#00005C;fontSize=12;fontColor=#7EA6E0;resizeWidth=1;resizeHeight=1;flipH=1;strokeColor=none;size=17;rotation=-1;">
          <mxGeometry as="geometry" height="25.538461538461536" width="58.142076502732245" y="654" x="554.7586206896551"/>
        </mxCell>
        <mxCell id="hIHgGYmMEe91IJO-j30--54" value="" parent="hIHgGYmMEe91IJO-j30--11" vertex="1" style="shape=manualInput;whiteSpace=wrap;html=1;labelBackgroundColor=#7EA6E0;fillColor=#00005C;fontSize=12;fontColor=#7EA6E0;rotation=-26;strokeColor=none;">
          <mxGeometry as="geometry" height="25.538461538461536" width="58.142076502732245" y="720" x="495.7586206896551"/>
        </mxCell>
        <mxCell id="hIHgGYmMEe91IJO-j30--55" value="" parent="hIHgGYmMEe91IJO-j30--11" vertex="1" style="shape=manualInput;whiteSpace=wrap;html=1;labelBackgroundColor=#7EA6E0;fillColor=#00005C;fontSize=12;fontColor=#7EA6E0;rotation=24;flipH=1;flipV=0;strokeColor=none;">
          <mxGeometry as="geometry" height="25.538461538461536" width="58.142076502732245" y="719" x="539.7586206896551"/>
        </mxCell>
        <mxCell id="hIHgGYmMEe91IJO-j30--56" value="" parent="hIHgGYmMEe91IJO-j30--11" vertex="1" style="shape=delay;whiteSpace=wrap;html=1;labelBackgroundColor=#7EA6E0;fillColor=#00005C;fontSize=12;fontColor=#7EA6E0;rotation=-90;strokeColor=none;">
          <mxGeometry as="geometry" height="22.346153846153843" width="116.28415300546449" y="667" x="487.7586206896551"/>
        </mxCell>
        <mxCell id="hIHgGYmMEe91IJO-j30--57" value="" parent="hIHgGYmMEe91IJO-j30--11" vertex="1" style="shape=manualInput;whiteSpace=wrap;html=1;labelBackgroundColor=#7EA6E0;fillColor=#00005C;fontSize=12;fontColor=#7EA6E0;strokeColor=none;size=17;rotation=-1;">
          <mxGeometry as="geometry" height="25.538461538461536" width="58.142076502732245" y="592" x="269.7586206896551"/>
        </mxCell>
        <mxCell id="hIHgGYmMEe91IJO-j30--58" value="" parent="hIHgGYmMEe91IJO-j30--11" vertex="1" style="shape=manualInput;whiteSpace=wrap;html=1;labelBackgroundColor=#7EA6E0;fillColor=#00005C;fontSize=12;fontColor=#7EA6E0;resizeWidth=1;resizeHeight=1;flipH=1;strokeColor=none;size=17;rotation=-1;">
          <mxGeometry as="geometry" height="25.538461538461536" width="58.142076502732245" y="590" x="344.7586206896551"/>
        </mxCell>
        <mxCell id="hIHgGYmMEe91IJO-j30--59" value="" parent="hIHgGYmMEe91IJO-j30--11" vertex="1" style="shape=manualInput;whiteSpace=wrap;html=1;labelBackgroundColor=#7EA6E0;fillColor=#00005C;fontSize=12;fontColor=#7EA6E0;rotation=-26;strokeColor=none;">
          <mxGeometry as="geometry" height="25.538461538461536" width="58.142076502732245" y="656" x="285.7586206896551"/>
        </mxCell>
        <mxCell id="hIHgGYmMEe91IJO-j30--60" value="" parent="hIHgGYmMEe91IJO-j30--11" vertex="1" style="shape=manualInput;whiteSpace=wrap;html=1;labelBackgroundColor=#7EA6E0;fillColor=#00005C;fontSize=12;fontColor=#7EA6E0;rotation=24;flipH=1;flipV=0;strokeColor=none;">
          <mxGeometry as="geometry" height="25.538461538461536" width="58.142076502732245" y="655" x="329.7586206896551"/>
        </mxCell>
        <mxCell id="hIHgGYmMEe91IJO-j30--61" value="" parent="hIHgGYmMEe91IJO-j30--11" vertex="1" style="shape=delay;whiteSpace=wrap;html=1;labelBackgroundColor=#7EA6E0;fillColor=#00005C;fontSize=12;fontColor=#7EA6E0;rotation=-90;strokeColor=none;">
          <mxGeometry as="geometry" height="22.346153846153843" width="116.28415300546449" y="603" x="277.7586206896551"/>
        </mxCell>
        <mxCell id="hIHgGYmMEe91IJO-j30--62" value="v" parent="hIHgGYmMEe91IJO-j30--11" vertex="1" style="group;rotation=-1;" connectable="0">
          <mxGeometry as="geometry" height="90" width="133" y="415.5" x="64"/>
        </mxCell>
        <mxCell id="hIHgGYmMEe91IJO-j30--63" value="" parent="hIHgGYmMEe91IJO-j30--62" vertex="1" style="shape=manualInput;whiteSpace=wrap;html=1;labelBackgroundColor=#7EA6E0;fillColor=#00005C;fontSize=12;fontColor=#7EA6E0;strokeColor=none;size=17;rotation=-1;">
          <mxGeometry as="geometry" height="25.538461538461536" width="58.142076502732245" y="1" x="-1"/>
        </mxCell>
        <mxCell id="hIHgGYmMEe91IJO-j30--64" value="" parent="hIHgGYmMEe91IJO-j30--62" vertex="1" style="shape=manualInput;whiteSpace=wrap;html=1;labelBackgroundColor=#7EA6E0;fillColor=#00005C;fontSize=12;fontColor=#7EA6E0;resizeWidth=1;resizeHeight=1;flipH=1;strokeColor=none;size=17;rotation=-1;">
          <mxGeometry as="geometry" height="25.538461538461536" width="58.142076502732245" y="-1" x="74"/>
        </mxCell>
        <mxCell id="hIHgGYmMEe91IJO-j30--65" value="" parent="hIHgGYmMEe91IJO-j30--62" vertex="1" style="shape=manualInput;whiteSpace=wrap;html=1;labelBackgroundColor=#7EA6E0;fillColor=#00005C;fontSize=12;fontColor=#7EA6E0;rotation=-26;strokeColor=none;">
          <mxGeometry as="geometry" height="25.538461538461536" width="58.142076502732245" y="65" x="15"/>
        </mxCell>
        <mxCell id="hIHgGYmMEe91IJO-j30--66" value="" parent="hIHgGYmMEe91IJO-j30--62" vertex="1" style="shape=manualInput;whiteSpace=wrap;html=1;labelBackgroundColor=#7EA6E0;fillColor=#00005C;fontSize=12;fontColor=#7EA6E0;rotation=24;flipH=1;flipV=0;strokeColor=none;">
          <mxGeometry as="geometry" height="25.538461538461536" width="58.142076502732245" y="64" x="59"/>
        </mxCell>
        <mxCell id="hIHgGYmMEe91IJO-j30--67" value="" parent="hIHgGYmMEe91IJO-j30--62" vertex="1" style="shape=delay;whiteSpace=wrap;html=1;labelBackgroundColor=#7EA6E0;fillColor=#00005C;fontSize=12;fontColor=#7EA6E0;rotation=-90;strokeColor=none;">
          <mxGeometry as="geometry" height="22.346153846153843" width="116.28415300546449" y="12" x="7"/>
        </mxCell>
        <mxCell id="hIHgGYmMEe91IJO-j30--68" value="" parent="hIHgGYmMEe91IJO-j30--11" vertex="1" style="shape=manualInput;whiteSpace=wrap;html=1;labelBackgroundColor=#7EA6E0;fillColor=#00005C;fontSize=12;fontColor=#7EA6E0;strokeColor=none;size=17;rotation=-1;">
          <mxGeometry as="geometry" height="25.538461538461536" width="58.142076502732245" y="416" x="482.7586206896551"/>
        </mxCell>
        <mxCell id="hIHgGYmMEe91IJO-j30--69" value="" parent="hIHgGYmMEe91IJO-j30--11" vertex="1" style="shape=manualInput;whiteSpace=wrap;html=1;labelBackgroundColor=#7EA6E0;fillColor=#00005C;fontSize=12;fontColor=#7EA6E0;resizeWidth=1;resizeHeight=1;flipH=1;strokeColor=none;size=17;rotation=-1;">
          <mxGeometry as="geometry" height="25.538461538461536" width="58.142076502732245" y="414" x="557.7586206896551"/>
        </mxCell>
        <mxCell id="hIHgGYmMEe91IJO-j30--70" value="" parent="hIHgGYmMEe91IJO-j30--11" vertex="1" style="shape=manualInput;whiteSpace=wrap;html=1;labelBackgroundColor=#7EA6E0;fillColor=#00005C;fontSize=12;fontColor=#7EA6E0;rotation=-26;strokeColor=none;">
          <mxGeometry as="geometry" height="25.538461538461536" width="58.142076502732245" y="480" x="498.7586206896551"/>
        </mxCell>
        <mxCell id="hIHgGYmMEe91IJO-j30--71" value="" parent="hIHgGYmMEe91IJO-j30--11" vertex="1" style="shape=manualInput;whiteSpace=wrap;html=1;labelBackgroundColor=#7EA6E0;fillColor=#00005C;fontSize=12;fontColor=#7EA6E0;rotation=24;flipH=1;flipV=0;strokeColor=none;">
          <mxGeometry as="geometry" height="25.538461538461536" width="58.142076502732245" y="479" x="542.7586206896551"/>
        </mxCell>
        <mxCell id="hIHgGYmMEe91IJO-j30--72" value="" parent="hIHgGYmMEe91IJO-j30--11" vertex="1" style="shape=delay;whiteSpace=wrap;html=1;labelBackgroundColor=#7EA6E0;fillColor=#00005C;fontSize=12;fontColor=#7EA6E0;rotation=-90;strokeColor=none;">
          <mxGeometry as="geometry" height="22.346153846153843" width="116.28415300546449" y="427" x="490.7586206896551"/>
        </mxCell>
        <mxCell id="hIHgGYmMEe91IJO-j30--73" value="" parent="hIHgGYmMEe91IJO-j30--11" vertex="1" style="shape=manualInput;whiteSpace=wrap;html=1;labelBackgroundColor=#7EA6E0;fillColor=#00005C;fontSize=12;fontColor=#7EA6E0;strokeColor=none;size=17;rotation=-1;">
          <mxGeometry as="geometry" height="25.538461538461536" width="58.142076502732245" y="352" x="272.7586206896551"/>
        </mxCell>
        <mxCell id="hIHgGYmMEe91IJO-j30--74" value="" parent="hIHgGYmMEe91IJO-j30--11" vertex="1" style="shape=manualInput;whiteSpace=wrap;html=1;labelBackgroundColor=#7EA6E0;fillColor=#00005C;fontSize=12;fontColor=#7EA6E0;resizeWidth=1;resizeHeight=1;flipH=1;strokeColor=none;size=17;rotation=-1;">
          <mxGeometry as="geometry" height="25.538461538461536" width="58.142076502732245" y="350" x="347.7586206896551"/>
        </mxCell>
        <mxCell id="hIHgGYmMEe91IJO-j30--75" value="" parent="hIHgGYmMEe91IJO-j30--11" vertex="1" style="shape=manualInput;whiteSpace=wrap;html=1;labelBackgroundColor=#7EA6E0;fillColor=#00005C;fontSize=12;fontColor=#7EA6E0;rotation=-26;strokeColor=none;">
          <mxGeometry as="geometry" height="25.538461538461536" width="58.142076502732245" y="416" x="288.7586206896551"/>
        </mxCell>
        <mxCell id="hIHgGYmMEe91IJO-j30--76" value="" parent="hIHgGYmMEe91IJO-j30--11" vertex="1" style="shape=manualInput;whiteSpace=wrap;html=1;labelBackgroundColor=#7EA6E0;fillColor=#00005C;fontSize=12;fontColor=#7EA6E0;rotation=24;flipH=1;flipV=0;strokeColor=none;">
          <mxGeometry as="geometry" height="25.538461538461536" width="58.142076502732245" y="415" x="332.7586206896551"/>
        </mxCell>
        <mxCell id="hIHgGYmMEe91IJO-j30--77" value="" parent="hIHgGYmMEe91IJO-j30--11" vertex="1" style="shape=delay;whiteSpace=wrap;html=1;labelBackgroundColor=#7EA6E0;fillColor=#00005C;fontSize=12;fontColor=#7EA6E0;rotation=-90;strokeColor=none;">
          <mxGeometry as="geometry" height="22.346153846153843" width="116.28415300546449" y="363" x="280.7586206896551"/>
        </mxCell>
        <mxCell id="hIHgGYmMEe91IJO-j30--78" value="v" parent="hIHgGYmMEe91IJO-j30--11" vertex="1" style="group;rotation=-1;" connectable="0">
          <mxGeometry as="geometry" height="90" width="133" y="165.5" x="64"/>
        </mxCell>
        <mxCell id="hIHgGYmMEe91IJO-j30--79" value="" parent="hIHgGYmMEe91IJO-j30--78" vertex="1" style="shape=manualInput;whiteSpace=wrap;html=1;labelBackgroundColor=#7EA6E0;fillColor=#00005C;fontSize=12;fontColor=#7EA6E0;strokeColor=none;size=17;rotation=-1;">
          <mxGeometry as="geometry" height="25.538461538461536" width="58.142076502732245" y="1" x="-1"/>
        </mxCell>
        <mxCell id="hIHgGYmMEe91IJO-j30--80" value="" parent="hIHgGYmMEe91IJO-j30--78" vertex="1" style="shape=manualInput;whiteSpace=wrap;html=1;labelBackgroundColor=#7EA6E0;fillColor=#00005C;fontSize=12;fontColor=#7EA6E0;resizeWidth=1;resizeHeight=1;flipH=1;strokeColor=none;size=17;rotation=-1;">
          <mxGeometry as="geometry" height="25.538461538461536" width="58.142076502732245" y="-1" x="74"/>
        </mxCell>
        <mxCell id="hIHgGYmMEe91IJO-j30--81" value="" parent="hIHgGYmMEe91IJO-j30--78" vertex="1" style="shape=manualInput;whiteSpace=wrap;html=1;labelBackgroundColor=#7EA6E0;fillColor=#00005C;fontSize=12;fontColor=#7EA6E0;rotation=-26;strokeColor=none;">
          <mxGeometry as="geometry" height="25.538461538461536" width="58.142076502732245" y="65" x="15"/>
        </mxCell>
        <mxCell id="hIHgGYmMEe91IJO-j30--82" value="" parent="hIHgGYmMEe91IJO-j30--78" vertex="1" style="shape=manualInput;whiteSpace=wrap;html=1;labelBackgroundColor=#7EA6E0;fillColor=#00005C;fontSize=12;fontColor=#7EA6E0;rotation=24;flipH=1;flipV=0;strokeColor=none;">
          <mxGeometry as="geometry" height="25.538461538461536" width="58.142076502732245" y="64" x="59"/>
        </mxCell>
        <mxCell id="hIHgGYmMEe91IJO-j30--83" value="" parent="hIHgGYmMEe91IJO-j30--78" vertex="1" style="shape=delay;whiteSpace=wrap;html=1;labelBackgroundColor=#7EA6E0;fillColor=#00005C;fontSize=12;fontColor=#7EA6E0;rotation=-90;strokeColor=none;">
          <mxGeometry as="geometry" height="22.346153846153843" width="116.28415300546449" y="12" x="7"/>
        </mxCell>
        <mxCell id="hIHgGYmMEe91IJO-j30--84" value="" parent="hIHgGYmMEe91IJO-j30--11" vertex="1" style="shape=manualInput;whiteSpace=wrap;html=1;labelBackgroundColor=#7EA6E0;fillColor=#00005C;fontSize=12;fontColor=#7EA6E0;strokeColor=none;size=17;rotation=-1;">
          <mxGeometry as="geometry" height="25.538461538461536" width="58.142076502732245" y="166" x="482.7586206896551"/>
        </mxCell>
        <mxCell id="hIHgGYmMEe91IJO-j30--85" value="" parent="hIHgGYmMEe91IJO-j30--11" vertex="1" style="shape=manualInput;whiteSpace=wrap;html=1;labelBackgroundColor=#7EA6E0;fillColor=#00005C;fontSize=12;fontColor=#7EA6E0;resizeWidth=1;resizeHeight=1;flipH=1;strokeColor=none;size=17;rotation=-1;">
          <mxGeometry as="geometry" height="25.538461538461536" width="58.142076502732245" y="164" x="557.7586206896551"/>
        </mxCell>
        <mxCell id="hIHgGYmMEe91IJO-j30--86" value="" parent="hIHgGYmMEe91IJO-j30--11" vertex="1" style="shape=manualInput;whiteSpace=wrap;html=1;labelBackgroundColor=#7EA6E0;fillColor=#00005C;fontSize=12;fontColor=#7EA6E0;rotation=-26;strokeColor=none;">
          <mxGeometry as="geometry" height="25.538461538461536" width="58.142076502732245" y="230" x="498.7586206896551"/>
        </mxCell>
        <mxCell id="hIHgGYmMEe91IJO-j30--87" value="" parent="hIHgGYmMEe91IJO-j30--11" vertex="1" style="shape=manualInput;whiteSpace=wrap;html=1;labelBackgroundColor=#7EA6E0;fillColor=#00005C;fontSize=12;fontColor=#7EA6E0;rotation=24;flipH=1;flipV=0;strokeColor=none;">
          <mxGeometry as="geometry" height="25.538461538461536" width="58.142076502732245" y="229" x="542.7586206896551"/>
        </mxCell>
        <mxCell id="hIHgGYmMEe91IJO-j30--88" value="" parent="hIHgGYmMEe91IJO-j30--11" vertex="1" style="shape=delay;whiteSpace=wrap;html=1;labelBackgroundColor=#7EA6E0;fillColor=#00005C;fontSize=12;fontColor=#7EA6E0;rotation=-90;strokeColor=none;">
          <mxGeometry as="geometry" height="22.346153846153843" width="116.28415300546449" y="177" x="490.7586206896551"/>
        </mxCell>
        <mxCell id="hIHgGYmMEe91IJO-j30--89" value="" parent="hIHgGYmMEe91IJO-j30--11" vertex="1" style="shape=manualInput;whiteSpace=wrap;html=1;labelBackgroundColor=#7EA6E0;fillColor=#00005C;fontSize=12;fontColor=#7EA6E0;strokeColor=none;size=17;rotation=-1;">
          <mxGeometry as="geometry" height="25.538461538461536" width="58.142076502732245" y="102" x="272.7586206896551"/>
        </mxCell>
        <mxCell id="hIHgGYmMEe91IJO-j30--90" value="" parent="hIHgGYmMEe91IJO-j30--11" vertex="1" style="shape=manualInput;whiteSpace=wrap;html=1;labelBackgroundColor=#7EA6E0;fillColor=#00005C;fontSize=12;fontColor=#7EA6E0;resizeWidth=1;resizeHeight=1;flipH=1;strokeColor=none;size=17;rotation=-1;">
          <mxGeometry as="geometry" height="25.538461538461536" width="58.142076502732245" y="100" x="347.7586206896551"/>
        </mxCell>
        <mxCell id="hIHgGYmMEe91IJO-j30--91" value="" parent="hIHgGYmMEe91IJO-j30--11" vertex="1" style="shape=manualInput;whiteSpace=wrap;html=1;labelBackgroundColor=#7EA6E0;fillColor=#00005C;fontSize=12;fontColor=#7EA6E0;rotation=-26;strokeColor=none;">
          <mxGeometry as="geometry" height="25.538461538461536" width="58.142076502732245" y="166" x="288.7586206896551"/>
        </mxCell>
        <mxCell id="hIHgGYmMEe91IJO-j30--92" value="" parent="hIHgGYmMEe91IJO-j30--11" vertex="1" style="shape=manualInput;whiteSpace=wrap;html=1;labelBackgroundColor=#7EA6E0;fillColor=#00005C;fontSize=12;fontColor=#7EA6E0;rotation=24;flipH=1;flipV=0;strokeColor=none;">
          <mxGeometry as="geometry" height="25.538461538461536" width="58.142076502732245" y="165" x="332.7586206896551"/>
        </mxCell>
        <mxCell id="hIHgGYmMEe91IJO-j30--93" value="" parent="hIHgGYmMEe91IJO-j30--11" vertex="1" style="shape=delay;whiteSpace=wrap;html=1;labelBackgroundColor=#7EA6E0;fillColor=#00005C;fontSize=12;fontColor=#7EA6E0;rotation=-90;strokeColor=none;">
          <mxGeometry as="geometry" height="22.346153846153843" width="116.28415300546449" y="113" x="280.7586206896551"/>
        </mxCell>
        <mxCell id="hIHgGYmMEe91IJO-j30--95" value="" parent="hIHgGYmMEe91IJO-j30--1" vertex="1" style="group" connectable="0">
          <mxGeometry as="geometry" height="1040" width="680" y="1140" x="80"/>
        </mxCell>
        <mxCell id="hIHgGYmMEe91IJO-j30--96" value="" parent="hIHgGYmMEe91IJO-j30--95" vertex="1" style="rounded=0;whiteSpace=wrap;html=1;fillColor=#000047;fontSize=12;">
          <mxGeometry as="geometry" height="1040" width="680"/>
        </mxCell>
        <mxCell id="hIHgGYmMEe91IJO-j30--97" value="v" parent="hIHgGYmMEe91IJO-j30--95" vertex="1" style="group;rotation=-1;" connectable="0">
          <mxGeometry as="geometry" height="90" width="133" y="881" x="61"/>
        </mxCell>
        <mxCell id="hIHgGYmMEe91IJO-j30--98" value="" parent="hIHgGYmMEe91IJO-j30--97" vertex="1" style="shape=manualInput;whiteSpace=wrap;html=1;labelBackgroundColor=#7EA6E0;fillColor=#00005C;fontSize=12;fontColor=#7EA6E0;strokeColor=none;size=17;rotation=-1;">
          <mxGeometry as="geometry" height="25.538461538461536" width="58.142076502732245" y="1" x="-1"/>
        </mxCell>
        <mxCell id="hIHgGYmMEe91IJO-j30--99" value="" parent="hIHgGYmMEe91IJO-j30--97" vertex="1" style="shape=manualInput;whiteSpace=wrap;html=1;labelBackgroundColor=#7EA6E0;fillColor=#00005C;fontSize=12;fontColor=#7EA6E0;resizeWidth=1;resizeHeight=1;flipH=1;strokeColor=none;size=17;rotation=-1;">
          <mxGeometry as="geometry" height="25.538461538461536" width="58.142076502732245" y="-1" x="74"/>
        </mxCell>
        <mxCell id="hIHgGYmMEe91IJO-j30--100" value="" parent="hIHgGYmMEe91IJO-j30--97" vertex="1" style="shape=manualInput;whiteSpace=wrap;html=1;labelBackgroundColor=#7EA6E0;fillColor=#00005C;fontSize=12;fontColor=#7EA6E0;rotation=-26;strokeColor=none;">
          <mxGeometry as="geometry" height="25.538461538461536" width="58.142076502732245" y="65" x="15"/>
        </mxCell>
        <mxCell id="hIHgGYmMEe91IJO-j30--101" value="" parent="hIHgGYmMEe91IJO-j30--97" vertex="1" style="shape=manualInput;whiteSpace=wrap;html=1;labelBackgroundColor=#7EA6E0;fillColor=#00005C;fontSize=12;fontColor=#7EA6E0;rotation=24;flipH=1;flipV=0;strokeColor=none;">
          <mxGeometry as="geometry" height="25.538461538461536" width="58.142076502732245" y="64" x="59"/>
        </mxCell>
        <mxCell id="hIHgGYmMEe91IJO-j30--102" value="" parent="hIHgGYmMEe91IJO-j30--97" vertex="1" style="shape=delay;whiteSpace=wrap;html=1;labelBackgroundColor=#7EA6E0;fillColor=#00005C;fontSize=12;fontColor=#7EA6E0;rotation=-90;strokeColor=none;">
          <mxGeometry as="geometry" height="22.346153846153843" width="116.28415300546449" y="12" x="7"/>
        </mxCell>
        <mxCell id="hIHgGYmMEe91IJO-j30--103" value="" parent="hIHgGYmMEe91IJO-j30--95" vertex="1" style="shape=manualInput;whiteSpace=wrap;html=1;labelBackgroundColor=#7EA6E0;fillColor=#00005C;fontSize=12;fontColor=#7EA6E0;strokeColor=none;size=17;rotation=-1;">
          <mxGeometry as="geometry" height="25.538461538461536" width="58.142076502732245" y="881.5" x="479.7586206896551"/>
        </mxCell>
        <mxCell id="hIHgGYmMEe91IJO-j30--104" value="" parent="hIHgGYmMEe91IJO-j30--95" vertex="1" style="shape=manualInput;whiteSpace=wrap;html=1;labelBackgroundColor=#7EA6E0;fillColor=#00005C;fontSize=12;fontColor=#7EA6E0;resizeWidth=1;resizeHeight=1;flipH=1;strokeColor=none;size=17;rotation=-1;">
          <mxGeometry as="geometry" height="25.538461538461536" width="58.142076502732245" y="879.5" x="554.7586206896551"/>
        </mxCell>
        <mxCell id="hIHgGYmMEe91IJO-j30--105" value="" parent="hIHgGYmMEe91IJO-j30--95" vertex="1" style="shape=manualInput;whiteSpace=wrap;html=1;labelBackgroundColor=#7EA6E0;fillColor=#00005C;fontSize=12;fontColor=#7EA6E0;rotation=-26;strokeColor=none;">
          <mxGeometry as="geometry" height="25.538461538461536" width="58.142076502732245" y="945.5" x="495.7586206896551"/>
        </mxCell>
        <mxCell id="hIHgGYmMEe91IJO-j30--106" value="" parent="hIHgGYmMEe91IJO-j30--95" vertex="1" style="shape=manualInput;whiteSpace=wrap;html=1;labelBackgroundColor=#7EA6E0;fillColor=#00005C;fontSize=12;fontColor=#7EA6E0;rotation=24;flipH=1;flipV=0;strokeColor=none;">
          <mxGeometry as="geometry" height="25.538461538461536" width="58.142076502732245" y="944.5" x="539.7586206896551"/>
        </mxCell>
        <mxCell id="hIHgGYmMEe91IJO-j30--107" value="" parent="hIHgGYmMEe91IJO-j30--95" vertex="1" style="shape=delay;whiteSpace=wrap;html=1;labelBackgroundColor=#7EA6E0;fillColor=#00005C;fontSize=12;fontColor=#7EA6E0;rotation=-90;strokeColor=none;">
          <mxGeometry as="geometry" height="22.346153846153843" width="116.28415300546449" y="892.5" x="487.7586206896551"/>
        </mxCell>
        <mxCell id="hIHgGYmMEe91IJO-j30--108" value="" parent="hIHgGYmMEe91IJO-j30--95" vertex="1" style="shape=manualInput;whiteSpace=wrap;html=1;labelBackgroundColor=#7EA6E0;fillColor=#00005C;fontSize=12;fontColor=#7EA6E0;strokeColor=none;size=17;rotation=-1;">
          <mxGeometry as="geometry" height="25.538461538461536" width="58.142076502732245" y="817.5" x="269.7586206896551"/>
        </mxCell>
        <mxCell id="hIHgGYmMEe91IJO-j30--109" value="" parent="hIHgGYmMEe91IJO-j30--95" vertex="1" style="shape=manualInput;whiteSpace=wrap;html=1;labelBackgroundColor=#7EA6E0;fillColor=#00005C;fontSize=12;fontColor=#7EA6E0;resizeWidth=1;resizeHeight=1;flipH=1;strokeColor=none;size=17;rotation=-1;">
          <mxGeometry as="geometry" height="25.538461538461536" width="58.142076502732245" y="815.5" x="344.7586206896551"/>
        </mxCell>
        <mxCell id="hIHgGYmMEe91IJO-j30--110" value="" parent="hIHgGYmMEe91IJO-j30--95" vertex="1" style="shape=manualInput;whiteSpace=wrap;html=1;labelBackgroundColor=#7EA6E0;fillColor=#00005C;fontSize=12;fontColor=#7EA6E0;rotation=-26;strokeColor=none;">
          <mxGeometry as="geometry" height="25.538461538461536" width="58.142076502732245" y="881.5" x="285.7586206896551"/>
        </mxCell>
        <mxCell id="hIHgGYmMEe91IJO-j30--111" value="" parent="hIHgGYmMEe91IJO-j30--95" vertex="1" style="shape=manualInput;whiteSpace=wrap;html=1;labelBackgroundColor=#7EA6E0;fillColor=#00005C;fontSize=12;fontColor=#7EA6E0;rotation=24;flipH=1;flipV=0;strokeColor=none;">
          <mxGeometry as="geometry" height="25.538461538461536" width="58.142076502732245" y="880.5" x="329.7586206896551"/>
        </mxCell>
        <mxCell id="hIHgGYmMEe91IJO-j30--112" value="" parent="hIHgGYmMEe91IJO-j30--95" vertex="1" style="shape=delay;whiteSpace=wrap;html=1;labelBackgroundColor=#7EA6E0;fillColor=#00005C;fontSize=12;fontColor=#7EA6E0;rotation=-90;strokeColor=none;">
          <mxGeometry as="geometry" height="22.346153846153843" width="116.28415300546449" y="828.5" x="277.7586206896551"/>
        </mxCell>
        <mxCell id="hIHgGYmMEe91IJO-j30--113" value="v" parent="hIHgGYmMEe91IJO-j30--95" vertex="1" style="group;rotation=-1;" connectable="0">
          <mxGeometry as="geometry" height="90" width="133" y="655.5" x="61"/>
        </mxCell>
        <mxCell id="hIHgGYmMEe91IJO-j30--114" value="" parent="hIHgGYmMEe91IJO-j30--113" vertex="1" style="shape=manualInput;whiteSpace=wrap;html=1;labelBackgroundColor=#7EA6E0;fillColor=#00005C;fontSize=12;fontColor=#7EA6E0;strokeColor=none;size=17;rotation=-1;">
          <mxGeometry as="geometry" height="25.538461538461536" width="58.142076502732245" y="1" x="-1"/>
        </mxCell>
        <mxCell id="hIHgGYmMEe91IJO-j30--115" value="" parent="hIHgGYmMEe91IJO-j30--113" vertex="1" style="shape=manualInput;whiteSpace=wrap;html=1;labelBackgroundColor=#7EA6E0;fillColor=#00005C;fontSize=12;fontColor=#7EA6E0;resizeWidth=1;resizeHeight=1;flipH=1;strokeColor=none;size=17;rotation=-1;">
          <mxGeometry as="geometry" height="25.538461538461536" width="58.142076502732245" y="-1" x="74"/>
        </mxCell>
        <mxCell id="hIHgGYmMEe91IJO-j30--116" value="" parent="hIHgGYmMEe91IJO-j30--113" vertex="1" style="shape=manualInput;whiteSpace=wrap;html=1;labelBackgroundColor=#7EA6E0;fillColor=#00005C;fontSize=12;fontColor=#7EA6E0;rotation=-26;strokeColor=none;">
          <mxGeometry as="geometry" height="25.538461538461536" width="58.142076502732245" y="65" x="15"/>
        </mxCell>
        <mxCell id="hIHgGYmMEe91IJO-j30--117" value="" parent="hIHgGYmMEe91IJO-j30--113" vertex="1" style="shape=manualInput;whiteSpace=wrap;html=1;labelBackgroundColor=#7EA6E0;fillColor=#00005C;fontSize=12;fontColor=#7EA6E0;rotation=24;flipH=1;flipV=0;strokeColor=none;">
          <mxGeometry as="geometry" height="25.538461538461536" width="58.142076502732245" y="64" x="59"/>
        </mxCell>
        <mxCell id="hIHgGYmMEe91IJO-j30--118" value="" parent="hIHgGYmMEe91IJO-j30--113" vertex="1" style="shape=delay;whiteSpace=wrap;html=1;labelBackgroundColor=#7EA6E0;fillColor=#00005C;fontSize=12;fontColor=#7EA6E0;rotation=-90;strokeColor=none;">
          <mxGeometry as="geometry" height="22.346153846153843" width="116.28415300546449" y="12" x="7"/>
        </mxCell>
        <mxCell id="hIHgGYmMEe91IJO-j30--119" value="" parent="hIHgGYmMEe91IJO-j30--95" vertex="1" style="shape=manualInput;whiteSpace=wrap;html=1;labelBackgroundColor=#7EA6E0;fillColor=#00005C;fontSize=12;fontColor=#7EA6E0;strokeColor=none;size=17;rotation=-1;">
          <mxGeometry as="geometry" height="25.538461538461536" width="58.142076502732245" y="656" x="479.7586206896551"/>
        </mxCell>
        <mxCell id="hIHgGYmMEe91IJO-j30--120" value="" parent="hIHgGYmMEe91IJO-j30--95" vertex="1" style="shape=manualInput;whiteSpace=wrap;html=1;labelBackgroundColor=#7EA6E0;fillColor=#00005C;fontSize=12;fontColor=#7EA6E0;resizeWidth=1;resizeHeight=1;flipH=1;strokeColor=none;size=17;rotation=-1;">
          <mxGeometry as="geometry" height="25.538461538461536" width="58.142076502732245" y="654" x="554.7586206896551"/>
        </mxCell>
        <mxCell id="hIHgGYmMEe91IJO-j30--121" value="" parent="hIHgGYmMEe91IJO-j30--95" vertex="1" style="shape=manualInput;whiteSpace=wrap;html=1;labelBackgroundColor=#7EA6E0;fillColor=#00005C;fontSize=12;fontColor=#7EA6E0;rotation=-26;strokeColor=none;">
          <mxGeometry as="geometry" height="25.538461538461536" width="58.142076502732245" y="720" x="495.7586206896551"/>
        </mxCell>
        <mxCell id="hIHgGYmMEe91IJO-j30--122" value="" parent="hIHgGYmMEe91IJO-j30--95" vertex="1" style="shape=manualInput;whiteSpace=wrap;html=1;labelBackgroundColor=#7EA6E0;fillColor=#00005C;fontSize=12;fontColor=#7EA6E0;rotation=24;flipH=1;flipV=0;strokeColor=none;">
          <mxGeometry as="geometry" height="25.538461538461536" width="58.142076502732245" y="719" x="539.7586206896551"/>
        </mxCell>
        <mxCell id="hIHgGYmMEe91IJO-j30--123" value="" parent="hIHgGYmMEe91IJO-j30--95" vertex="1" style="shape=delay;whiteSpace=wrap;html=1;labelBackgroundColor=#7EA6E0;fillColor=#00005C;fontSize=12;fontColor=#7EA6E0;rotation=-90;strokeColor=none;">
          <mxGeometry as="geometry" height="22.346153846153843" width="116.28415300546449" y="667" x="487.7586206896551"/>
        </mxCell>
        <mxCell id="hIHgGYmMEe91IJO-j30--124" value="" parent="hIHgGYmMEe91IJO-j30--95" vertex="1" style="shape=manualInput;whiteSpace=wrap;html=1;labelBackgroundColor=#7EA6E0;fillColor=#00005C;fontSize=12;fontColor=#7EA6E0;strokeColor=none;size=17;rotation=-1;">
          <mxGeometry as="geometry" height="25.538461538461536" width="58.142076502732245" y="592" x="269.7586206896551"/>
        </mxCell>
        <mxCell id="hIHgGYmMEe91IJO-j30--125" value="" parent="hIHgGYmMEe91IJO-j30--95" vertex="1" style="shape=manualInput;whiteSpace=wrap;html=1;labelBackgroundColor=#7EA6E0;fillColor=#00005C;fontSize=12;fontColor=#7EA6E0;resizeWidth=1;resizeHeight=1;flipH=1;strokeColor=none;size=17;rotation=-1;">
          <mxGeometry as="geometry" height="25.538461538461536" width="58.142076502732245" y="590" x="344.7586206896551"/>
        </mxCell>
        <mxCell id="hIHgGYmMEe91IJO-j30--126" value="" parent="hIHgGYmMEe91IJO-j30--95" vertex="1" style="shape=manualInput;whiteSpace=wrap;html=1;labelBackgroundColor=#7EA6E0;fillColor=#00005C;fontSize=12;fontColor=#7EA6E0;rotation=-26;strokeColor=none;">
          <mxGeometry as="geometry" height="25.538461538461536" width="58.142076502732245" y="656" x="285.7586206896551"/>
        </mxCell>
        <mxCell id="hIHgGYmMEe91IJO-j30--127" value="" parent="hIHgGYmMEe91IJO-j30--95" vertex="1" style="shape=manualInput;whiteSpace=wrap;html=1;labelBackgroundColor=#7EA6E0;fillColor=#00005C;fontSize=12;fontColor=#7EA6E0;rotation=24;flipH=1;flipV=0;strokeColor=none;">
          <mxGeometry as="geometry" height="25.538461538461536" width="58.142076502732245" y="655" x="329.7586206896551"/>
        </mxCell>
        <mxCell id="hIHgGYmMEe91IJO-j30--128" value="" parent="hIHgGYmMEe91IJO-j30--95" vertex="1" style="shape=delay;whiteSpace=wrap;html=1;labelBackgroundColor=#7EA6E0;fillColor=#00005C;fontSize=12;fontColor=#7EA6E0;rotation=-90;strokeColor=none;">
          <mxGeometry as="geometry" height="22.346153846153843" width="116.28415300546449" y="603" x="277.7586206896551"/>
        </mxCell>
        <mxCell id="hIHgGYmMEe91IJO-j30--129" value="v" parent="hIHgGYmMEe91IJO-j30--95" vertex="1" style="group;rotation=-1;" connectable="0">
          <mxGeometry as="geometry" height="90" width="133" y="415.5" x="64"/>
        </mxCell>
        <mxCell id="hIHgGYmMEe91IJO-j30--130" value="" parent="hIHgGYmMEe91IJO-j30--129" vertex="1" style="shape=manualInput;whiteSpace=wrap;html=1;labelBackgroundColor=#7EA6E0;fillColor=#00005C;fontSize=12;fontColor=#7EA6E0;strokeColor=none;size=17;rotation=-1;">
          <mxGeometry as="geometry" height="25.538461538461536" width="58.142076502732245" y="1" x="-1"/>
        </mxCell>
        <mxCell id="hIHgGYmMEe91IJO-j30--131" value="" parent="hIHgGYmMEe91IJO-j30--129" vertex="1" style="shape=manualInput;whiteSpace=wrap;html=1;labelBackgroundColor=#7EA6E0;fillColor=#00005C;fontSize=12;fontColor=#7EA6E0;resizeWidth=1;resizeHeight=1;flipH=1;strokeColor=none;size=17;rotation=-1;">
          <mxGeometry as="geometry" height="25.538461538461536" width="58.142076502732245" y="-1" x="74"/>
        </mxCell>
        <mxCell id="hIHgGYmMEe91IJO-j30--132" value="" parent="hIHgGYmMEe91IJO-j30--129" vertex="1" style="shape=manualInput;whiteSpace=wrap;html=1;labelBackgroundColor=#7EA6E0;fillColor=#00005C;fontSize=12;fontColor=#7EA6E0;rotation=-26;strokeColor=none;">
          <mxGeometry as="geometry" height="25.538461538461536" width="58.142076502732245" y="65" x="15"/>
        </mxCell>
        <mxCell id="hIHgGYmMEe91IJO-j30--133" value="" parent="hIHgGYmMEe91IJO-j30--129" vertex="1" style="shape=manualInput;whiteSpace=wrap;html=1;labelBackgroundColor=#7EA6E0;fillColor=#00005C;fontSize=12;fontColor=#7EA6E0;rotation=24;flipH=1;flipV=0;strokeColor=none;">
          <mxGeometry as="geometry" height="25.538461538461536" width="58.142076502732245" y="64" x="59"/>
        </mxCell>
        <mxCell id="hIHgGYmMEe91IJO-j30--134" value="" parent="hIHgGYmMEe91IJO-j30--129" vertex="1" style="shape=delay;whiteSpace=wrap;html=1;labelBackgroundColor=#7EA6E0;fillColor=#00005C;fontSize=12;fontColor=#7EA6E0;rotation=-90;strokeColor=none;">
          <mxGeometry as="geometry" height="22.346153846153843" width="116.28415300546449" y="12" x="7"/>
        </mxCell>
        <mxCell id="hIHgGYmMEe91IJO-j30--135" value="" parent="hIHgGYmMEe91IJO-j30--95" vertex="1" style="shape=manualInput;whiteSpace=wrap;html=1;labelBackgroundColor=#7EA6E0;fillColor=#00005C;fontSize=12;fontColor=#7EA6E0;strokeColor=none;size=17;rotation=-1;">
          <mxGeometry as="geometry" height="25.538461538461536" width="58.142076502732245" y="416" x="482.7586206896551"/>
        </mxCell>
        <mxCell id="hIHgGYmMEe91IJO-j30--136" value="" parent="hIHgGYmMEe91IJO-j30--95" vertex="1" style="shape=manualInput;whiteSpace=wrap;html=1;labelBackgroundColor=#7EA6E0;fillColor=#00005C;fontSize=12;fontColor=#7EA6E0;resizeWidth=1;resizeHeight=1;flipH=1;strokeColor=none;size=17;rotation=-1;">
          <mxGeometry as="geometry" height="25.538461538461536" width="58.142076502732245" y="414" x="557.7586206896551"/>
        </mxCell>
        <mxCell id="hIHgGYmMEe91IJO-j30--137" value="" parent="hIHgGYmMEe91IJO-j30--95" vertex="1" style="shape=manualInput;whiteSpace=wrap;html=1;labelBackgroundColor=#7EA6E0;fillColor=#00005C;fontSize=12;fontColor=#7EA6E0;rotation=-26;strokeColor=none;">
          <mxGeometry as="geometry" height="25.538461538461536" width="58.142076502732245" y="480" x="498.7586206896551"/>
        </mxCell>
        <mxCell id="hIHgGYmMEe91IJO-j30--138" value="" parent="hIHgGYmMEe91IJO-j30--95" vertex="1" style="shape=manualInput;whiteSpace=wrap;html=1;labelBackgroundColor=#7EA6E0;fillColor=#00005C;fontSize=12;fontColor=#7EA6E0;rotation=24;flipH=1;flipV=0;strokeColor=none;">
          <mxGeometry as="geometry" height="25.538461538461536" width="58.142076502732245" y="479" x="542.7586206896551"/>
        </mxCell>
        <mxCell id="hIHgGYmMEe91IJO-j30--139" value="" parent="hIHgGYmMEe91IJO-j30--95" vertex="1" style="shape=delay;whiteSpace=wrap;html=1;labelBackgroundColor=#7EA6E0;fillColor=#00005C;fontSize=12;fontColor=#7EA6E0;rotation=-90;strokeColor=none;">
          <mxGeometry as="geometry" height="22.346153846153843" width="116.28415300546449" y="427" x="490.7586206896551"/>
        </mxCell>
        <mxCell id="hIHgGYmMEe91IJO-j30--140" value="" parent="hIHgGYmMEe91IJO-j30--95" vertex="1" style="shape=manualInput;whiteSpace=wrap;html=1;labelBackgroundColor=#7EA6E0;fillColor=#00005C;fontSize=12;fontColor=#7EA6E0;strokeColor=none;size=17;rotation=-1;">
          <mxGeometry as="geometry" height="25.538461538461536" width="58.142076502732245" y="352" x="272.7586206896551"/>
        </mxCell>
        <mxCell id="hIHgGYmMEe91IJO-j30--141" value="" parent="hIHgGYmMEe91IJO-j30--95" vertex="1" style="shape=manualInput;whiteSpace=wrap;html=1;labelBackgroundColor=#7EA6E0;fillColor=#00005C;fontSize=12;fontColor=#7EA6E0;resizeWidth=1;resizeHeight=1;flipH=1;strokeColor=none;size=17;rotation=-1;">
          <mxGeometry as="geometry" height="25.538461538461536" width="58.142076502732245" y="350" x="347.7586206896551"/>
        </mxCell>
        <mxCell id="hIHgGYmMEe91IJO-j30--142" value="" parent="hIHgGYmMEe91IJO-j30--95" vertex="1" style="shape=manualInput;whiteSpace=wrap;html=1;labelBackgroundColor=#7EA6E0;fillColor=#00005C;fontSize=12;fontColor=#7EA6E0;rotation=-26;strokeColor=none;">
          <mxGeometry as="geometry" height="25.538461538461536" width="58.142076502732245" y="416" x="288.7586206896551"/>
        </mxCell>
        <mxCell id="hIHgGYmMEe91IJO-j30--143" value="" parent="hIHgGYmMEe91IJO-j30--95" vertex="1" style="shape=manualInput;whiteSpace=wrap;html=1;labelBackgroundColor=#7EA6E0;fillColor=#00005C;fontSize=12;fontColor=#7EA6E0;rotation=24;flipH=1;flipV=0;strokeColor=none;">
          <mxGeometry as="geometry" height="25.538461538461536" width="58.142076502732245" y="415" x="332.7586206896551"/>
        </mxCell>
        <mxCell id="hIHgGYmMEe91IJO-j30--144" value="" parent="hIHgGYmMEe91IJO-j30--95" vertex="1" style="shape=delay;whiteSpace=wrap;html=1;labelBackgroundColor=#7EA6E0;fillColor=#00005C;fontSize=12;fontColor=#7EA6E0;rotation=-90;strokeColor=none;">
          <mxGeometry as="geometry" height="22.346153846153843" width="116.28415300546449" y="363" x="280.7586206896551"/>
        </mxCell>
        <mxCell id="hIHgGYmMEe91IJO-j30--145" value="v" parent="hIHgGYmMEe91IJO-j30--95" vertex="1" style="group;rotation=-1;" connectable="0">
          <mxGeometry as="geometry" height="90" width="133" y="165.5" x="64"/>
        </mxCell>
        <mxCell id="hIHgGYmMEe91IJO-j30--146" value="" parent="hIHgGYmMEe91IJO-j30--145" vertex="1" style="shape=manualInput;whiteSpace=wrap;html=1;labelBackgroundColor=#7EA6E0;fillColor=#00005C;fontSize=12;fontColor=#7EA6E0;strokeColor=none;size=17;rotation=-1;">
          <mxGeometry as="geometry" height="25.538461538461536" width="58.142076502732245" y="1" x="-1"/>
        </mxCell>
        <mxCell id="hIHgGYmMEe91IJO-j30--147" value="" parent="hIHgGYmMEe91IJO-j30--145" vertex="1" style="shape=manualInput;whiteSpace=wrap;html=1;labelBackgroundColor=#7EA6E0;fillColor=#00005C;fontSize=12;fontColor=#7EA6E0;resizeWidth=1;resizeHeight=1;flipH=1;strokeColor=none;size=17;rotation=-1;">
          <mxGeometry as="geometry" height="25.538461538461536" width="58.142076502732245" y="-1" x="74"/>
        </mxCell>
        <mxCell id="hIHgGYmMEe91IJO-j30--148" value="" parent="hIHgGYmMEe91IJO-j30--145" vertex="1" style="shape=manualInput;whiteSpace=wrap;html=1;labelBackgroundColor=#7EA6E0;fillColor=#00005C;fontSize=12;fontColor=#7EA6E0;rotation=-26;strokeColor=none;">
          <mxGeometry as="geometry" height="25.538461538461536" width="58.142076502732245" y="65" x="15"/>
        </mxCell>
        <mxCell id="hIHgGYmMEe91IJO-j30--149" value="" parent="hIHgGYmMEe91IJO-j30--145" vertex="1" style="shape=manualInput;whiteSpace=wrap;html=1;labelBackgroundColor=#7EA6E0;fillColor=#00005C;fontSize=12;fontColor=#7EA6E0;rotation=24;flipH=1;flipV=0;strokeColor=none;">
          <mxGeometry as="geometry" height="25.538461538461536" width="58.142076502732245" y="64" x="59"/>
        </mxCell>
        <mxCell id="hIHgGYmMEe91IJO-j30--150" value="" parent="hIHgGYmMEe91IJO-j30--145" vertex="1" style="shape=delay;whiteSpace=wrap;html=1;labelBackgroundColor=#7EA6E0;fillColor=#00005C;fontSize=12;fontColor=#7EA6E0;rotation=-90;strokeColor=none;">
          <mxGeometry as="geometry" height="22.346153846153843" width="116.28415300546449" y="12" x="7"/>
        </mxCell>
        <mxCell id="hIHgGYmMEe91IJO-j30--151" value="" parent="hIHgGYmMEe91IJO-j30--95" vertex="1" style="shape=manualInput;whiteSpace=wrap;html=1;labelBackgroundColor=#7EA6E0;fillColor=#00005C;fontSize=12;fontColor=#7EA6E0;strokeColor=none;size=17;rotation=-1;">
          <mxGeometry as="geometry" height="25.538461538461536" width="58.142076502732245" y="166" x="482.7586206896551"/>
        </mxCell>
        <mxCell id="hIHgGYmMEe91IJO-j30--152" value="" parent="hIHgGYmMEe91IJO-j30--95" vertex="1" style="shape=manualInput;whiteSpace=wrap;html=1;labelBackgroundColor=#7EA6E0;fillColor=#00005C;fontSize=12;fontColor=#7EA6E0;resizeWidth=1;resizeHeight=1;flipH=1;strokeColor=none;size=17;rotation=-1;">
          <mxGeometry as="geometry" height="25.538461538461536" width="58.142076502732245" y="164" x="557.7586206896551"/>
        </mxCell>
        <mxCell id="hIHgGYmMEe91IJO-j30--153" value="" parent="hIHgGYmMEe91IJO-j30--95" vertex="1" style="shape=manualInput;whiteSpace=wrap;html=1;labelBackgroundColor=#7EA6E0;fillColor=#00005C;fontSize=12;fontColor=#7EA6E0;rotation=-26;strokeColor=none;">
          <mxGeometry as="geometry" height="25.538461538461536" width="58.142076502732245" y="230" x="498.7586206896551"/>
        </mxCell>
        <mxCell id="hIHgGYmMEe91IJO-j30--154" value="" parent="hIHgGYmMEe91IJO-j30--95" vertex="1" style="shape=manualInput;whiteSpace=wrap;html=1;labelBackgroundColor=#7EA6E0;fillColor=#00005C;fontSize=12;fontColor=#7EA6E0;rotation=24;flipH=1;flipV=0;strokeColor=none;">
          <mxGeometry as="geometry" height="25.538461538461536" width="58.142076502732245" y="229" x="542.7586206896551"/>
        </mxCell>
        <mxCell id="hIHgGYmMEe91IJO-j30--155" value="" parent="hIHgGYmMEe91IJO-j30--95" vertex="1" style="shape=delay;whiteSpace=wrap;html=1;labelBackgroundColor=#7EA6E0;fillColor=#00005C;fontSize=12;fontColor=#7EA6E0;rotation=-90;strokeColor=none;">
          <mxGeometry as="geometry" height="22.346153846153843" width="116.28415300546449" y="177" x="490.7586206896551"/>
        </mxCell>
        <mxCell id="hIHgGYmMEe91IJO-j30--156" value="" parent="hIHgGYmMEe91IJO-j30--95" vertex="1" style="shape=manualInput;whiteSpace=wrap;html=1;labelBackgroundColor=#7EA6E0;fillColor=#00005C;fontSize=12;fontColor=#7EA6E0;strokeColor=none;size=17;rotation=-1;">
          <mxGeometry as="geometry" height="25.538461538461536" width="58.142076502732245" y="102" x="272.7586206896551"/>
        </mxCell>
        <mxCell id="hIHgGYmMEe91IJO-j30--157" value="" parent="hIHgGYmMEe91IJO-j30--95" vertex="1" style="shape=manualInput;whiteSpace=wrap;html=1;labelBackgroundColor=#7EA6E0;fillColor=#00005C;fontSize=12;fontColor=#7EA6E0;resizeWidth=1;resizeHeight=1;flipH=1;strokeColor=none;size=17;rotation=-1;">
          <mxGeometry as="geometry" height="25.538461538461536" width="58.142076502732245" y="100" x="347.7586206896551"/>
        </mxCell>
        <mxCell id="hIHgGYmMEe91IJO-j30--158" value="" parent="hIHgGYmMEe91IJO-j30--95" vertex="1" style="shape=manualInput;whiteSpace=wrap;html=1;labelBackgroundColor=#7EA6E0;fillColor=#00005C;fontSize=12;fontColor=#7EA6E0;rotation=-26;strokeColor=none;">
          <mxGeometry as="geometry" height="25.538461538461536" width="58.142076502732245" y="166" x="288.7586206896551"/>
        </mxCell>
        <mxCell id="hIHgGYmMEe91IJO-j30--159" value="" parent="hIHgGYmMEe91IJO-j30--95" vertex="1" style="shape=manualInput;whiteSpace=wrap;html=1;labelBackgroundColor=#7EA6E0;fillColor=#00005C;fontSize=12;fontColor=#7EA6E0;rotation=24;flipH=1;flipV=0;strokeColor=none;">
          <mxGeometry as="geometry" height="25.538461538461536" width="58.142076502732245" y="165" x="332.7586206896551"/>
        </mxCell>
        <mxCell id="hIHgGYmMEe91IJO-j30--160" value="" parent="hIHgGYmMEe91IJO-j30--95" vertex="1" style="shape=delay;whiteSpace=wrap;html=1;labelBackgroundColor=#7EA6E0;fillColor=#00005C;fontSize=12;fontColor=#7EA6E0;rotation=-90;strokeColor=none;">
          <mxGeometry as="geometry" height="22.346153846153843" width="116.28415300546449" y="113" x="280.7586206896551"/>
        </mxCell>
      </root>
    </mxGraphModel>
  </diagram>
</mxfile>
